<?xml version="1.0" encoding="UTF-8"?>
<svg id="Ebene_2" xmlns="http://www.w3.org/2000/svg" viewBox="0 0 122.88 58.56">
  <defs>
    <style>
      .cls-1 {
        fill: #1f3388;
      }

      .cls-2 {
        isolation: isolate;
      }

      .cls-3 {
        fill: #fff;
      }

      .cls-4 {
        fill: #1f3488;
      }
    </style>
  </defs>
  <g id="Ebene_1-2" data-name="Ebene_1">
    <g>
      <g id="Ebene_1-2">
        <g>
          <rect class="cls-4" x="33.65" width="89.22" height="29.74" rx="7" ry="7"/>
          <g class="cls-2">
            <g class="cls-2">
              <path class="cls-3" d="M40.25,6.06h7.22c1.43,0,2.5.06,3.2.18s1.33.37,1.89.75c.56.38,1.02.88,1.39,1.51s.55,1.33.55,2.11c0,.85-.23,1.62-.68,2.33-.46.71-1.08,1.24-1.86,1.59,1.1.32,1.95.87,2.54,1.64.59.77.89,1.68.89,2.73,0,.82-.19,1.62-.57,2.4-.38.78-.91,1.4-1.57,1.86-.66.46-1.48.75-2.45.86-.61.07-2.08.11-4.4.12h-6.15V6.06ZM43.9,9.07v4.18h2.39c1.42,0,2.31-.02,2.65-.06.62-.07,1.12-.29,1.47-.65s.54-.83.54-1.41-.15-1.01-.46-1.36-.77-.56-1.38-.63c-.36-.04-1.4-.06-3.12-.06h-2.1ZM43.9,16.26v4.83h3.38c1.32,0,2.15-.04,2.5-.11.54-.1.98-.34,1.33-.72s.51-.89.51-1.54c0-.54-.13-1-.39-1.38s-.64-.65-1.14-.83c-.5-.17-1.58-.26-3.24-.26h-2.95Z"/>
              <path class="cls-3" d="M58.47,24.13V6.06h13.4v3.06h-9.75v4.01h9.07v3.05h-9.07v4.92h10.1v3.05h-13.75Z"/>
              <path class="cls-3" d="M83.72,17.49v-3.05h7.87v7.2c-.76.74-1.87,1.39-3.32,1.95-1.45.56-2.92.84-4.41.84-1.89,0-3.54-.4-4.94-1.19-1.4-.79-2.46-1.93-3.17-3.4-.71-1.48-1.06-3.08-1.06-4.81,0-1.88.39-3.55,1.18-5.02.79-1.46,1.94-2.58,3.46-3.37,1.16-.6,2.6-.9,4.33-.9,2.24,0,4,.47,5.26,1.41,1.26.94,2.07,2.24,2.43,3.9l-3.62.68c-.26-.89-.73-1.59-1.44-2.1-.7-.51-1.58-.77-2.63-.77-1.59,0-2.86.51-3.8,1.52s-1.41,2.51-1.41,4.5c0,2.15.48,3.75,1.43,4.83.95,1.07,2.2,1.61,3.75,1.61.76,0,1.53-.15,2.3-.45.77-.3,1.43-.66,1.98-1.09v-2.29h-4.18Z"/>
              <path class="cls-3" d="M94.84,24.13V6.06h3.65v18.07h-3.65Z"/>
              <path class="cls-3" d="M102.01,24.13V6.06h3.55l7.4,12.07V6.06h3.39v18.07h-3.66l-7.29-11.79v11.79h-3.39Z"/>
            </g>
          </g>
        </g>
      </g>
      <g id="Ebene_1-2-2" data-name="Ebene_1-2">
        <path class="cls-1" d="M.21,38.91C.07,39.03,0,39.2,0,39.38s.07.35.21.46l11.13,9.9c.18.16.44.2.66.1.22-.1.37-.32.37-.56v-4.34h.18c.14,0,.29.01.44.01,5.17,0,10.52,2.78,10.52,7.42,0,1.67-1.14,3.77-2.24,5.06-.16.11-.26.3-.26.51,0,.34.29.6.63.62h.01c.1,0,.2-.02.29-.07,4.57-2.39,7.76-7.19,7.76-11.68,0-7.04-7.08-12.99-15.47-12.99h-1.86v-4.33c0-.24-.14-.46-.37-.56-.22-.1-.48-.06-.66.1L.21,38.92h0Z"/>
      </g>
    </g>
  </g>
</svg>