<?xml version="1.0" encoding="UTF-8"?>
<svg version="1.1" viewBox="0 0 2048 2044" width="614" height="613" xmlns="http://www.w3.org/2000/svg">
<path transform="translate(385,829)" d="m0 0h17l20 2 21 5 19 7 14 7 11 7 10 8 6 5 7 8 3 4-1 2-9-6-15-12-20-12-20-8-24-5-11-1h-20l-19 3-15 5-16 8-13 10-13 13-11 16-7 15-5 19-2 15v16l3 19 6 20 8 17 11 17 13 15 10 10 17 12 15 9 22 9 22 5 9 1h25l16-3 15-4 21-10 16-13 10-10h3l-2 6-13 23-15 22-13 16-9 11-24 24-13 10-16 12-29 17-17 8-30 10-13 1-1-1v-28l-2-9-5-9-5-5-8-5-13-3h-9l-15 5-11 4h-15l-8-4-5-6-3-7v-10l2-10-1-6-8-10 2-7 7-7 1-4-9-3-6-5 2-6 5-7v-2l-23-12-5-4-1-2 1-10 6-11 13-18 12-19 4-10 1-12v-23l3-18 4-15 8-18 10-16 12-13 7-7 13-9 12-7 21-8 21-5 14-2z" fill="#758374"/>
<path transform="translate(617,841)" d="m0 0h38l3 3 15 61 9 45 2 16h2l1-12 5-30 17-67 3-12 3-4h38l1 1v187l-1 17h-29l-1-6v-61l2-58 2-33h-2l-4 17-13 59-12 52-2 4h-18l-3-5-11-49-9-39-8-37v-2h-2l2 52v105l-1 1h-28v-204z" fill="#788677"/>
<path transform="translate(385,829)" d="m0 0h17l20 2 21 5 19 7 14 7 11 7 10 8 6 5 7 8 3 4-1 2-9-6-15-12-20-12-20-8-24-5-11-1h-20l-19 3-15 5-16 8-13 10-5 5-7 3h-3v2h-3l-1 3-8 7-8 11-8 16-5 19-1 8v35l3 19 5 40 1 15v53l-4 21-5 12-7 10-10 9-1 2 9-3 19-6 12-3h16l12 6 8 6 6 8 5 11v15l-6 16-4 2-1-23-2-9-5-9-5-5-8-5-13-3h-9l-15 5-11 4h-15l-8-4-5-6-3-7v-10l2-10-1-6-8-10 2-7 7-7 1-4-9-3-6-5 2-6 5-7v-2l-23-12-5-4-1-2 1-10 6-11 13-18 12-19 4-10 1-12v-23l3-18 4-15 8-18 10-16 12-13 7-7 13-9 12-7 21-8 21-5 14-2z" fill="#717A75"/>
<path transform="translate(1418,841)" d="m0 0h9l3 5 11 30 15 42 15 43 5 12-1-16-1-17v-98l1-1h27l1 1v47l-1 157h-25l-6-12-14-40-9-24-17-48-3-6 1 21 1 15 1 93-1 1h-28v-204z" fill="#768475"/>
<path transform="translate(1603,841)" d="m0 0h25l9 24 15 42 19 55 5 12-1-14-1-19v-99l1-1h27v204l-1 1h-24l-3-4-9-25-20-55-13-37-4-8 1 21 1 15 1 92-1 1h-28v-204z" fill="#768475"/>
<path transform="translate(1279,841)" d="m0 0h31l21 2 12 3 13 7 7 7 5 8 4 12 2 18-1 21-3 16-5 12-7 9-7 6-3 2 2 6 14 34 15 38v4h-32l-4-8-20-57-4-10-3-1h-7l-1 76h-30l-1-99v-104zm30 23-1 1v81l1 1h12l9-3 6-5 4-9 1-6v-40l-3-9-8-7-9-3z" fill="#768475"/>
<path transform="translate(1775,840)" d="m0 0h19l11 3 8 4 8 7 5 8 3 12v22l-2 11-1 1h-25l-1-23-3-10-3-4v-2l-4-2-3-1h-7l-8 4-5 10-1 6v117l3 11 5 6 8 3 7-1 7-6 4-10 1-7 1-36h-14l-1-1v-18l1-1h45l1 3v99l-1 1h-20l-2-4-1-14-4 4-7 8-5 4-8 3h-18l-10-4-10-8-6-8-4-8-4-13-2-15-1-18v-50l1-25 3-21 5-13 8-11 13-9z" fill="#798678"/>
<path transform="translate(398,870)" d="m0 0h6l4 5h12l5-5 6 1 5 6-2 7 11 22 11 4 4 5 1 9-4 6-3 2v8h11l5 4 2 10v21l-3 6-5 3v7l4 16 7-3 5-5 4-7-1-9-1-3h-2l-4-7 2-5 4-4v-13l-5-4-1-7 6-7 1-5v-8l-7-7-2-4v-8l-8-6-8-1-6-1-3-4v-6l4-5 7-1 5 4 2 9 5 2 5 3 4-1 3-1h7l7 4 3 7v6l-4 6-6 4h-2l1 4-1 11 5-1 10-5 6-8 5-1 5 5 1 6-4 5v14l3 5 1 1-1 7-4 3h-6l-4-4 1-7 2-2 1-4v-15l-15 6-3 6-3 5v12l5 3 4 10 11 6 8 3 1 5-3 4-5-1-8-8-8-4-4-1 1 13 2 4v5l-12 5-6 4-3 9-4 5v17l6 7-1 7-4 4h-7l-5-5-1-5 6-7v-19l-5-6-3-6-5-2-14 1-6-7v-5l7-6h8l5 6 2 6 10 3-2-11-3-12-2-1h-19l-5-3-4-1-5 1-2 6-4 4-1 3v13l5 10 11 8 9 1 4 3-1 5-4 3-5-1-7-7-9-5h-8l-5-3-2-4 5-7 1-3v-15l-5-3-1-5 1-6 6-4 12 2 5-5-1-10 2-4v-8l3-6 4-2 12-2-1-6-8-7-1-2v-8l3-4-1-6-9-17-9-6-1-1-14-1 3 14 3 3 6 3 4 6v7l-4 6-3 2v12l7 6 2 5-1 5-4 6-2 1h-9l-7-2-10 6v13l-2 3h-2l-2 4-1 5 3 9 4 2v6l-4 3-5-2-2-5-1-9-1-4-9-1-8-4-4-5-2-4v-9l4-7 8-6 8-1 8 3 4 3 5-1 7-4 2-9 4-2 2-4v-12l-6-3-4-7 1-7 4-6h2l-4-15-4-1-10 4-3 8-5 4-7 1-5-3h-6l-8 4v8l9 4 7-1 2-1h6l6 4 3 4v7l-5 6-5 2-6-1-3-2h-5l-12 7-2 6-5 5-1 9v7l4 5-1 5-4 4h-7l-3-5-5-5-7-3h-12l-5-4-1-6 6-7v-17l-2-3 1-6 6-1 4 2v6l-2 3v15l4 5 3 6 11 6 4 1-1-18-4-6 2-6 4-4h12l13-8-1-4-5-3-5-2-4 1-4 3-9 1-7-3-4-5-1-3v-7l5-8 6-3h8l7 4 6-1 7-3 3-8 5-5 6-2 8 4 6-1 5-2 2-6z" fill="#798678"/>
<path transform="translate(1188,841)" d="m0 0h31l3 1 11 59 17 93 8 41 1 11h-32l-2-5-4-29-1-2h-20l-15 1-5 34-1 1h-30l-1-5 5-31 13-68 8-46 10-52 1-2zm14 45-3 19-9 66-1 14 27 1 1-1-1-14-8-62-2-17-2-6z" fill="#778576"/>
<path transform="translate(1066,841)" d="m0 0h74v25l-1 1h-44v60h34l1 1v17l-1 7h-34v68h41l5 1v20l-1 5h-76l-1-2v-202z" fill="#7A8779"/>
<path transform="translate(972,841)" d="m0 0h30l1 1v178h36l5 1 1 24-5 1h-69v-204z" fill="#778476"/>
<path transform="translate(786,841)" d="m0 0h33l1 3-1 201-1 1h-31l-1-1z" fill="#748273"/>
<path transform="translate(1536,841)" d="m0 0h32v204l-31 1-1-1-1-203z" fill="#778576"/>
<path transform="translate(398,870)" d="m0 0h6l4 5h12l5-5 6 1 5 6-2 7 11 22 11 4v2l-7 2-7 4-5 1v5h-1v-8l3-4-1-6-9-17-9-6-1-1-14-1 3 14 3 3 6 3 4 6v7l-4 6-3 2v12l7 6 2 5-1 5-4 6-2 1h-9l-7-2-10 6v13l-2 3h-2l-2 4-1 5 3 9 4 2v6l-4 3-5-2-2-5-1-9-1-4-9-1-8-4-4-5-2-4v-9l4-7 8-6 8-1 8 3 4 3 5-1 7-4 2-9 4-2 2-4v-12l-6-3-4-7 1-7 4-6h2l-4-15-4-1-10 4-3 8-5 4-7 1-5-3h-6l-8 4v8l9 4 7-1 2-1h6l6 4 3 4v7l-5 6-5 2-6-1-3-2h-5l-12 7-2 6-5 5-1 9v7l4 5-1 5-4 4h-7l-3-5-5-5-7-3h-12l-5-4-1-6 6-7v-17l-2-3 1-6 6-1 4 2v6l-2 3v15l4 5 3 6 11 6 4 1-1-18-4-6 2-6 4-4h12l13-8-1-4-5-3-5-2-4 1-4 3-9 1-7-3-4-5-1-3v-7l5-8 6-3h8l7 4 6-1 7-3 3-8 5-5 6-2 8 4 6-1 5-2 2-6z" fill="#818E80"/>
<path transform="translate(455,877)" d="m0 0 7 1 4 5 1 7 5 2 5 3 4-1 3-1h7l7 4 3 7v6l-4 6-6 4h-2l1 4-1 11 5-1 10-5 6-8 5-1 5 5 1 6-4 5v14l3 5 1 1-1 7-4 3h-6l-4-4 1-7 2-2 1-4v-15l-15 6-3 6-3 5v12l5 3 4 10 11 6 8 3 1 5-3 4-5-1-8-8-8-4-4-1 1 13 2 5-9-2-1-2 1-7-2-7h-2l-4-7 2-5 4-4v-13l-5-4-1-7 6-7 1-5v-8l-7-7-2-4v-8l-8-6-8-1-6-1-3-4v-6l4-5z" fill="#7E8B7D"/>
<path transform="translate(1115,1104)" d="m0 0 5 1 5 12 12 31 13 35 1 2-1-52v-28l8-1 1 1v97l-2 2-7-1-3-5-11-30-12-29-6-15 1 79-1 1h-7l-1-1v-92l2-6z" fill="#889487"/>
<path transform="translate(623,922)" d="m0 0 4 1 2 10 6 2 1 11 1 2-1 3 2 19 1 14v50l-3 7-1 2-9 1-5-2v-2l-4-2v-56l1-17v-12l3-16 1-13z" fill="#707974"/>
<path transform="translate(856,939)" d="m0 0h82l2 1v23l-64 1h-19l-7-1v-23z" fill="#707974"/>
<path transform="translate(1501,1104)" d="m0 0 6 1 5 12 11 29 15 41-1-62v-19l4-2 4 1v98l-5 1-4-2-7-18-8-21-13-33-3-7v81h-7l-1-1v-80l1-17z" fill="#859184"/>
<path transform="translate(1695,855)" d="m0 0h5l1 1v188h-6l-2-3-3-1-4-4-2-1v-9l-2-5 4-1 1-7-2-2 1-6 4-16 1-3-1-4 2-5v-12l1-4v-26l-1-9-6-8-3-6 1-3h2v-3h-2l1-7h2l-1-6 5-8 1-10-1-2 2-14z" fill="#707973"/>
<path transform="translate(680,1103)" d="m0 0 13 1 8 4 6 9 1 3v17l-5 12-9 12 1 5 11 30 1 7-6 1-3-3-10-31v-3l-11 7-3 2v27h-8l-1-55v-39l3-3zm-1 7-6 3v55l4-2 8-7 7-7 6-10 2-6v-15l-3-6-5-4-3-1z" fill="#839082"/>
<path transform="translate(1411,1103)" d="m0 0h7l8 3 6 8 3 12v10l-3 1-4-1-1-2-2-14-4-7-2-1h-8l-6 5-4 8-3 13v33l3 15 5 9 4 2h7l5-4 4-13 1-12h-12l-4-1v-6l1-1h22l1 1v16l-3 15-7 10-8 4h-9l-6-3-7-8-4-11-2-11-1-25 1-14 4-15 6-9 8-6z" fill="#859184"/>
<path transform="translate(972,1105)" d="m0 0 5 1 3 12 10 45 7 29 2 9v4h-6l-2-2-6-27v-2h-25l-1 11-4 19-1 1-7-1 1-10 12-55 5-23 3-9zm0 15-8 36-2 10 1 1h19l1-2-9-42z" fill="#869285"/>
<path transform="translate(626,1105)" d="m0 0 5 1 3 9 9 42 7 29 3 13v6h-6l-3-7-5-23-24-1-2 13-4 17-1 1h-5l-1-1 1-11 14-64 5-20zm1 14-4 16-6 27v5h10l10-1-1-10-6-28-2-9z" fill="#869285"/>
<path transform="translate(882,1105)" d="m0 0h12l5 3 5 6 3 9 1 8v11l-1 1-7-1-2-19-4-8-4-2-7 1-5 5-5 14-2 12v30l4 15 4 6 3 2h8l5-5 3-10 2-8 4-1 4 2v9l-3 9-9 10-5 2h-10l-8-4-4-5-5-12-2-11v-32l4-18 6-12 7-6z" fill="#869285"/>
<path transform="translate(1579,1105)" d="m0 0h13l6 4 5 8 2 9v16l-1 1h-5l-1-1-3-21-3-6-4-2-7 1-5 4-5 11-2 10-1 11v21l2 13 3 8 5 5 2 1h7l5-2 3-9 3-13h5l2 2v11l-4 9-5 6-7 4h-11l-6-3-6-7-5-13-2-13v-24l3-17 4-11 6-8 5-4z" fill="#849083"/>
<path transform="translate(1222,1104)" d="m0 0h29l1 6-3 1h-19v47h13l4 2-1 4-3 1-13 1v32h28l1 4-3 3h-33l-2-5v-34z" fill="#8A9689"/>
<path transform="translate(1620,1104)" d="m0 0h28l1 1v5l-2 1h-19v47h16l1 5-4 2-12 1-1 32 27-1 2 2-1 5-2 1h-33l-1-1z" fill="#8B968A"/>
<path transform="translate(1451,1104)" d="m0 0h28l2 5-3 2h-19v33l-1 14 17 1v5l-3 1-13 1v32h28l1 5-5 2h-31l-1-1z" fill="#788677"/>
<path transform="translate(370,949)" d="m0 0 8 1 9 6 2 4 1 4v10l-2 3h-2l-2 4-1 5 3 9 4 2v6l-4 3-5-2-2-5-1-9-1-4-9-1-8-4-4-5-2-4v-9l4-7 8-6z" fill="#717B75"/>
<path transform="translate(1758,913)" d="m0 0h3l2 1 1 56-1 31-4 5-6 2-5-9-2-3 1-4 1-3-3-6 1-7 3-10 2-5-2-2 1-5 2-8 1-13v-14z" fill="#707974"/>
<path transform="translate(463,991)" d="m0 0 2 4 3 12 7-3 9-9 6 1 3 2-1 5-11 4-6 4-3 9-4 5v17l6 7-1 7-4 4h-7l-5-5-1-5 6-7v-19l-5-6-3-6-5-2-14 1-6-7v-5l7-6h8l5 6 2 6 10 3-2-11-1-5h2v2z" fill="#757F78"/>
<path transform="translate(716,1103)" d="m0 0h25l16 1 2 2v4h-20v93h-8l-1-3v-40l1-50-4 1h-15v-7z" fill="#919C90"/>
<path transform="translate(798,1104)" d="m0 0h30l1 6-9 1h-14v48h17l1 3-1 2-5 1h-12l1 38-1 1h-7l-1-1-1-72v-26z" fill="#899588"/>
<path transform="translate(1268,1106)" d="m0 0h9v93l24-1 3 3-1 4-12 1h-20l-3-5z" fill="#919C90"/>
<path transform="translate(1168,1104)" d="m0 0h45l1 6-20 1v92h-8v-93l-6 1h-12l-1-1v-5z" fill="#859285"/>
<path transform="translate(1010,1106)" d="m0 0h9l1 1-1 92 8-1h18l1 6-7 2h-26l-2-3-1-72z" fill="#7E8B7D"/>
<path transform="translate(1316,1106)" d="m0 0h8l1 1v30l-1 62 12-1h12l3 1v5l-1 1-12 1h-19l-3-3-1-96z" fill="#869285"/>
<path transform="translate(1813,1014)" d="m0 0 2 2 1 6 6-1 3 5 1 8-2 3-7-1-5-3v-2h-2v-3l-4 4-7 8-5 4-8 3h-16v-2l-5-1-3-5-2-3 3-1 2-4h6l1-3h16l9-2 9-4 5-5v-2z" fill="#717A74"/>
<path transform="translate(410,901)" d="m0 0 7 2 4 4v7l-4 6-3 2v12l7 6 2 5-1 5-4 6-2 1h-9l-7-2-11 6-3-4 9-6 3-1 2-9 4-2 2-4v-12l-2-4-3-3-1-7 4-5z" fill="#818E80"/>
<path transform="translate(925,1104)" d="m0 0 8 1v97l-2 2-6-1-1-1v-97z" fill="#919C90"/>
<path transform="translate(455,877)" d="m0 0 7 1 4 5 1 7 5 2 5 3 4-1 3-1h7l7 4 3 7v6l-4 6-5 3-11-1-6-7-1-5v-5l-8-6-8-1-6-1-3-4v-6l4-5z" fill="#737C76"/>
<path transform="translate(1365,1104)" d="m0 0 8 1v98l-1 1h-6l-2-3v-95z" fill="#849184"/>
<path transform="translate(838,1104)" d="m0 0 7 1 1 1v97l-7 1-2-1v-98z" fill="#8A968A"/>
<path transform="translate(769,1105)" d="m0 0h8v98l-1 1h-6l-1-1z" fill="#8E998D"/>
<path transform="translate(1082,1105)" d="m0 0h8v98h-8l-1-97z" fill="#7D8A7C"/>
<path transform="translate(856,939)" d="m0 0h82l2 1v23h-11l4-1-1-7 2-5-1-4-2-1h-58l-13 2-3 3 3 11-1 2h17v1h-19l-7-1v-23z" fill="#869285"/>
<path transform="translate(1802,862)" d="m0 0 3 3h5l5 1 6 8 6 18v3h-2v12h-19l-2-5 3-14-1-12-6-8-2-2z" fill="#707974"/>
<path transform="translate(1034,1025)" d="m0 0 5 2 1 9-5 5h-18l-15-1-6 1-9-1h-3v-2l-3-1-1-3 4-2h4l5-5 5 1 7 1h7l13-3z" fill="#707974"/>
<path transform="translate(463,1136)" d="m0 0h3v2l2 1-2 9-2 2-14 5-6 6h-2v2l-4 1v2h-2l-1 2-5-1-2 5-4 3h-6v2l-9 5-5 1v-5l7-2 1-3 3-3h2l2-5 7-3 9-9 7-3 8-6 10-6z" fill="#707973"/>
<path transform="translate(395,1181)" d="m0 0 4 2h3v2h-2v2h-3l-1 5-5 5-20 8-5 1-10 3-5-3 1-6 1-4 10-5h4 6l9-3 5-2 3-3z" fill="#707973"/>
<path transform="translate(1292,998)" d="m0 0 6 2 2 6 2 23 1 5h-2l1 6-1 1h-12l-4-4 1-9 1-3v-6l2-4v-9z" fill="#707974"/>
<path transform="translate(427,833)" d="m0 0 9 1 24 8 16 8 11 7 10 8 6 5 7 8 3 4-1 2-9-6-15-12-20-12-20-8-4-1 2-5h-2v-2l-6 1-2-2-7-2z" fill="#8A968A"/>
<path transform="translate(1554 1e3)" d="m0 0h3l2 6 2 15 2 10-1 3-6 7-5-1-3-2-5-3 1-7 4-17 1-4 1-6z" fill="#707974"/>
<path transform="translate(1492,901)" d="m0 0 3 4 1 15 1 18v32l-2 3-1-7h-2l-2-9-4-8v-15l-3-1v-6l3-2h3l1-9 1-4z" fill="#707974"/>
<path transform="translate(408,989)" d="m0 0 6 2v16l5 10 11 8 9 1 4 3-1 5-4 3-5-1-7-7-9-5h-8l-5-3-2-4 5-7 1-3v-15l-2-2z" fill="#78817B"/>
<path transform="translate(1127,1028)" d="m0 0 4 2h3l3 9-3 4-7 1h-8l-2-1v-2h5l-7-2h-20l-2-1-7-1v-4l2-2h14l5 1 5-2h8l4 1z" fill="#707973"/>
<path transform="translate(368,914)" d="m0 0 13 2 3 4v7l-5 6-5 2-6-1-3-2h-5l-8 5h-5l1-3h2l2-4 8-5 1-5 2-2h3z" fill="#77807B"/>
<path transform="translate(665,1111)" d="m0 0 3 6 5-4v55l2 1v3l-7-1-2 1-1-24z" fill="#899589"/>
<path transform="translate(1412,1160)" d="m0 0h22l1 1v16l-3 15-7 10-2-1-1-3-5 1v-2l5-4 4-13 1-12h-12l-4-1v-6z" fill="#859184"/>
<path transform="translate(701,930)" d="m0 0 8 2v6l-3 2-3 14-6 9-1 7-1 2h-2l-2 5-4 1-3-2 2-7 4-2 1-6v-12l3-2 4-16z" fill="#707974"/>
<path transform="translate(332,898)" d="m0 0 10 1 3 2v2l2 1-2 2 1 4 1 2-2 5-4 3-9 1-3-1-5-5 1-7h2l1-7 1-2z" fill="#717A75"/>
<path transform="translate(456,911)" d="m0 0 4 4 1 9-4 6-6 2-9-1-5-5v-7l5-2 8-5z" fill="#727B76"/>
<path transform="translate(512,920)" d="m0 0 5 1 4 6-1 6-3 3v14l3 5 1 1-1 7-4 3h-6l-4-4 1-7 2-2 1-4v-15l-4 1v-2h7l4-2 1-5-4-2-4-1z" fill="#879386"/>
<path transform="translate(681,982)" d="m0 0h8l5 1-1 4h-2l1 11-2 5v7h-2v2l-6 2-3-3v-24z" fill="#707973"/>
<path transform="translate(716,1103)" d="m0 0h25l16 1 2 2v4l-23 1-3 1v-2l-6 1h-15v-7z" fill="#7A837E"/>
<path transform="translate(410,901)" d="m0 0 7 2 4 4v7l-4 6-3 2-9-1-4-5-1-7 4-5z" fill="#737C77"/>
<path transform="translate(1168,1104)" d="m0 0h45l1 6-21 1v2l-4 1-3-3h-18l-1-1v-5z" fill="#828F82"/>
<path transform="translate(1539,1104)" d="m0 0h5l1 1v35l-2 7-2-1v-2h-3l-1-19v-19z" fill="#7B847E"/>
<path transform="translate(891,1105)" d="m0 0 6 1 7 8 3 9 1 8v11l-1 1-7-1-2-19-4-8-1-5z" fill="#879387"/>
<path transform="translate(373,882)" d="m0 0 6 1 4 3v9l-6 5-7 1-5-3v-2h-2v-6h2l-1-3 4-2 1-2z" fill="#737C77"/>
<path transform="translate(1598,1174)" d="m0 0h5l2 2v11l-4 9-5 6-7 4h-5l2-4-6-2v-1l9-2 3-1 3-9z" fill="#869285"/>
<path transform="translate(1582,1105)" d="m0 0h10l6 4 5 8 2 9v16l-1 1h-5l-1-1-3-21-2-5 2-1 1-4-4-1v-3h-12z" fill="#838F82"/>
<path transform="translate(436,993)" d="m0 0h8l5 6v6l-4 5-3 1h-7l-6-7v-5z" fill="#757E78"/>
<path transform="translate(463,1032)" d="m0 0h4l1 10 6 7-1 7-4 4h-7l-5-5-1-5 6-7z" fill="#7E8B7D"/>
<path transform="translate(1452,1196)" d="m0 0h5l1 1 29 1 1 5-5 2h-31l-1-1v-6z" fill="#818984"/>
<path transform="translate(1415,1009)" d="m0 0h2l3 11 2 1v7l2 5-1 3-1 4h-10l-1-2v-7l2-12 1-9z" fill="#707974"/>
<path transform="translate(349,932)" d="m0 0 1 2h-2v2l2 2-2 1-2 6-5 5-8-1-4-6 2-6 4-4h12z" fill="#7C857F"/>
<path transform="translate(668,1170)" d="m0 0 5 1 2 4-1 1v27h-8v-31z" fill="#747D77"/>
<path transform="translate(1411,1103)" d="m0 0h7l8 3 6 8 3 12v10l-3 1-4-1-1-2-2-14-3-7h3l-1-5-13-4z" fill="#8C978B"/>
<path transform="translate(786,841)" d="m0 0h13v1h-10l-1 16-1 187h-1z" fill="#FEFEFE"/>
<path transform="translate(1495,993)" d="m0 0h1l1 16 1 8v16l-3 3-4-1-3-9v-6l4-4 1-9-1-3 2-4-1-2z" fill="#707973"/>
<path transform="translate(1116,852)" d="m0 0h7l5 2 3 5v3l-3 2-10 1-4-3-6-1-2-1 1-4 5-3z" fill="#707974"/>
<path transform="translate(455,877)" d="m0 0 7 1 4 5-1 7-2 3-9 1-5-5v-6l4-5z" fill="#747D77"/>
<path transform="translate(307,923)" d="m0 0 6 1 1 1v6l-2 3v15l4 6-8-1-5-1 2-3v-17l-2-3 1-6z" fill="#808982"/>
<path transform="translate(1027,1198)" d="m0 0h18l1 6-1 1h-30l-2-1 1-5z" fill="#7F8882"/>
<path transform="translate(302,953)" d="m0 0h11l4 4-1 5-4 5h-7l-5-4-1-6z" fill="#727C75"/>
<path transform="translate(1412,1160)" d="m0 0h22l1 1v7l-3 2h-4l-1-2h-12l-4-1v-6z" fill="#7F8781"/>
<path transform="translate(1454,1106)" d="m0 0h24l1 3-1 2h-19v33h-1l-1-25-4-2 1-3h-2l1-7z" fill="#979E9A"/>
<path transform="translate(1358,927)" d="m0 0 4 1 2 2-1 6-7 13-6 4h-3v-2h-2v-3l6-2 1-6 1-3h2l2-4v-5z" fill="#707974"/>
<path transform="translate(509,1079)" d="m0 0h4l-1 5h-2l-3 9h-2v4l2 1-4 2h-3l-1 3-4-1-1-3 3-7 6-7 4-4h2z" fill="#707973"/>
<path transform="translate(1298,1198)" d="m0 0 5 1 1 5-1 1-12 1h-20l4-2-1-3 8-2z" fill="#868E89"/>
<path transform="translate(1237,1198)" d="m0 0h21l1 4-1 2h-28l-4-1v-2l8-1z" fill="#707973"/>
<path transform="translate(381,981)" d="m0 0 2 1 1 8 2 5 4 2v6l-4 3-5-2-2-5-1-9-1-4-4-1 5-1v-2z" fill="#7F8B7E"/>
<path transform="translate(410,978)" d="m0 0h6l2 4v6l-3 3-11-1-2-4 2-7z" fill="#747D78"/>
<path transform="translate(741,1021)" d="m0 0h3l3 9v7l-1 2-6 1-5-4 2-6h2l-2-5z" fill="#707973"/>
<path transform="translate(1621,1020)" d="m0 0 2 2 1 3v12l-2 3h-5l-4-2-1-3 3-7h2l1-6z" fill="#707974"/>
<path transform="translate(1187,1106)" d="m0 0h22l4 2-1 2-19 1v2l-4 1-3-3-12-1-3-2 2-1z" fill="#727B76"/>
<path transform="translate(1414,1104)" d="m0 0 10 3 2 2-1 5-6-2h-8l-6 5h-5l2-6 4-4 7-2z" fill="#757E79"/>
<path transform="translate(716,1103)" d="m0 0h25l16 1 2 4h-23l-9-1h-13l-2 1v-4z" fill="#A1AAA0"/>
<path transform="translate(425,1022)" d="m0 0 5 3 9 1 4 3-1 5-4 3-5-1-9-9z" fill="#7C857F"/>
<path transform="translate(1544,1140)" d="m0 0h1v63l-5 1-4-2-2-6 5-2 4-2z" fill="#B5B9B7"/>
<path transform="translate(1501,1104)" d="m0 0 6 1 1 1 2 13-4 1-7-3-1-2v-9z" fill="#767F79"/>
<path transform="translate(1642,1105)" d="m0 0h7v5l-2 1h-20l-1 4-4-1v-6l10-2z" fill="#88908C"/>
<path transform="translate(1644,929)" d="m0 0h5l2 3 1 4 6 4v2h2l2 3 1 2-8 2-4-5-3-7-4-1-1-4z" fill="#707974"/>
<path transform="translate(409,944)" d="m0 0 4 1 3 3 1 8-1 1h-9l-4-4 2-5z" fill="#717A74"/>
<path transform="translate(333,968)" d="m0 0h6l4 4-1 5-3 3h-7l-2-2v-7z" fill="#727B76"/>
<path transform="translate(466,887)" d="m0 0 1 3 5 2 5 3 4-1 3-1h7l-2 1v2l-5 2h-5l-2 4-2 1-4-5-8-4 1-4z" fill="#889487"/>
<path transform="translate(512,954)" d="m0 0 6 1 2 5-2 5-2 1h-6l-4-4 1-7z" fill="#727B76"/>
<path transform="translate(1580,1107)" d="m0 0h12l1 3 3 1v6l-8-4-7 1-3 2h-4l-1 2v-4l4-5h3z" fill="#77807A"/>
<path transform="translate(511,920)" d="m0 0m-1 1m-1 1 8 2 2 4-3 5-5 1h-7v-5z" fill="#737C77"/>
<path transform="translate(1325,1200)" d="m0 0h24l1 3-1 2-27-1z" fill="#707973"/>
<path transform="translate(317,959)" d="m0 0 16 8v2h-2l-1 6-8-6-9-3z" fill="#849083"/>
<path transform="translate(408,989)" d="m0 0 6 2v16l1 5-6-1-4 2 3-6v-15l-2-2z" fill="#828F82"/>
<path transform="translate(1624,1200)" d="m0 0 19 1h8l2 2-10 2h-18l-3-2v-2z" fill="#707A73"/>
<path transform="translate(484,995)" d="m0 0 6 1 3 2-1 5-11 3-2-2 2-6z" fill="#757F78"/>
<path transform="translate(463,991)" d="m0 0 2 4 3 12 2 1-9-1-3-15h2v2z" fill="#859184"/>
<path transform="translate(666,1107)" d="m0 0 6 1 8-1 1 3-9 3-2 4-3 1-2-9z" fill="#78827B"/>
<path transform="translate(799,1029)" d="m0 0h8l2 3-1 5h-10l-2-4z" fill="#707974"/>
<path transform="translate(773,1191)" d="m0 0 2 2v4h2v6l-1 1h-6l-1-1v-9l1-2z" fill="#7D867F"/>
<path transform="translate(1451,1104)" d="m0 0h28l2 5h-3v-2h-24l-1 2h-2z" fill="#7A8879"/>
<path transform="translate(508,984)" d="m0 0h8l2 2-1 6-2 2-5-1-2-5z" fill="#79837C"/>
<path transform="translate(626,1105)" d="m0 0 5 1 1 4-4 4-1 2h-3l-1 2-1-4 1-7z" fill="#7B847E"/>
<path transform="translate(884,1105)" d="m0 0h7l1 3 3 1-1 4-11-1-1-4z" fill="#727C75"/>
<path transform="translate(1420,1197)" d="m0 0 4 2v4l-6 2h-7l-2-4 7-3z" fill="#747E77"/>
<path transform="translate(1464,1159)" d="m0 0h11v5h-16l1-4z" fill="#727B75"/>
<path transform="translate(1114,1105)" d="m0 0 5 2 2 8h-2v2l-5-1v-2h-2v-7z" fill="#707973"/>
<path transform="translate(809,1160)" d="m0 0h15l-1 4h-14l-4-2z" fill="#767F7A"/>
<path transform="translate(386,997)" d="m0 0h4v6l-4 3-5-2-1-4z" fill="#747E78"/>
<path transform="translate(1237,1198)" d="m0 0h21l1 4h-2l-1-2-5 1h-14l-2-2z" fill="#7A8779"/>
<path transform="translate(310,944)" d="m0 0h1l2 6 3 5-8-1-5-1 4-7z" fill="#869285"/>
<path transform="translate(1364,1180)" d="m0 0h1v17h2l1 4h3l1-5h1v7l-1 1h-6l-2-3z" fill="#C6CBC5"/>
<path transform="translate(1231,1107)" d="m0 0h20v3h-17l-3-1z" fill="#707973"/>
<path transform="translate(465,1050)" d="m0 0 5 2 2 5-4 2-6-4 1-4z" fill="#707A73"/>
<path transform="translate(1827,894)" d="m0 0h1v8l-2 6h-12v-1l10-1v-9z" fill="#9AA499"/>
<path transform="translate(814,1107)" d="m0 0h11l4 1v2h-18l-3-2z" fill="#767F79"/>
<path transform="translate(1075,1033)" d="m0 0 7 1 2 5 3 1-7-1-6-2z" fill="#707973"/>
<path transform="translate(391,1196)" d="m0 0m-3 1h3l-1 3-16 6 2-4 11-4z" fill="#879386"/>
<path transform="translate(1502,1192)" d="m0 0 3 1v10l-5-1v-2h2l-2-6z" fill="#707973"/>
<path transform="translate(370,949)" d="m0 0 8 1v2l-11 1-3 2h-3v-2l5-3z" fill="#8E998D"/>
<path transform="translate(1166,1031)" d="m0 0h7l-1 6-7-1z" fill="#707974"/>
<path transform="translate(355,960)" d="m0 0 1 2 2 1v2 7l1 2h-4l-1-2v-9z" fill="#7E8A7D"/>
<path transform="translate(491,894)" d="m0 0 4 1 5 5 1 10-2 2-2-12-6-4z" fill="#95A094"/>
<path transform="translate(1236,1160)" d="m0 0h9l1 4h-10z" fill="#737C77"/>
<path transform="translate(479 1e3)" d="m0 0h2l-1 4v4l-3 2-3-1 2-2-2-2zm2 4m-9 2 2 1z" fill="#899588"/>
<path transform="translate(457,985)" d="m0 0 3 1 2-1 1 2v6l-3 1v-2h-2z" fill="#747D77"/>
<path transform="translate(455,877)" d="m0 0 7 1 4 5v5l-2-1-3-5v-2h-5z" fill="#7E8B7D"/>
<path transform="translate(427,833)" d="m0 0 9 1 7 2v2l-5 1-2-2-7-2z" fill="#8E998D"/>
<path transform="translate(1579,1200)" d="m0 0 8 1v3l-3 2h-4l-2-5z" fill="#707A73"/>
<path transform="translate(950,1198)" d="m0 0 4 2v5l-7-1 1-4h2z" fill="#89938A"/>
<path transform="translate(441,838)" d="m0 0h3v2h2l-2 4-9-1 5-4z" fill="#7C857F"/>
<path transform="translate(449 1e3)" d="m0 0 2 4 4 2-4 1v2h-6l1-3h2z" fill="#8B978A"/>
<path transform="translate(1625,930)" d="m0 0h1v6l-2 4-4-1 2-8z" fill="#707974"/>
<path transform="translate(484,893)" d="m0 0h7l-2 1v2l-5 2h-5l2-4z" fill="#98A297"/>
<path transform="translate(1796,949)" d="m0 0 5 1 1 2-1 2-4 1-3-2v-3z" fill="#707974"/>
<path transform="translate(1799,1037)" d="m0 0 2 1-7 6-5 2 1-3 4-1-1-3z" fill="#8A9689"/>
<path transform="translate(369,912)" d="m0 0h6l5 3-4 1-9-1v-2z" fill="#8E9A8D"/>
<path transform="translate(1556,954)" d="m0 0h2v9h-3l-1-6z" fill="#707974"/>
<path transform="translate(425,1022)" d="m0 0 6 4-2 5-5-4z" fill="#879386"/>
</svg>
