<?xml version="1.0" encoding="UTF-8"?>
<svg version="1.1" viewBox="0 0 2048 2044" width="614" height="613" xmlns="http://www.w3.org/2000/svg">
<path transform="translate(383,888)" d="m0 0h14l19 2 19 5 14 6 14 9 12 11 8 10 8 16 4 10 4 17 1 8 1 22 8 17 11 18 8 12v6l-9 6-7 4h-2l-1 3v7l2 9v8l-5 5-1 4 5 4-2 5-3 7-2 19-5 6-37 1-16 3-9 5-6 7-5 11-4 9h-90l-1-1v-25l-2-21-5-19-6-13-7-11-11-13-6-8v-2l12-1h10l8 2 10 10 7 17 5 5 8 5 9 1 10-3 8-7 4-8 2-5h10l6 7 2 1h8l5-3 2-3v-8l-3-5-5-2-8 1-8 7h-9l-4-9-7-8-6-3-9-3-8-7-16-16-4-1h-52l-2-6-1-7v-29l2-4h48l7 4 8 9 6 15 7 8 8 3h13l10-5 6-8 2-8h11l5 7 4 2 9-1 5-5 1-6-3-7-6-3-8 1-5 5-2 3h-10l-8-16-8-5-10-3-23-23-2-1-52-1 1-4 10-14 7-7h63l6 4 7 7 4 8 3 9 6 7 10 5h11l10-5 6-7 4-10 1-1 10-1 5 8 6 3 6-1 5-4 2-6-3-8-5-3h-7l-4 1-2 4-4 4-4-1h-6l-7-14-6-5-13-4-14-14-8-7-6-4zm90 79-7 5h-15l-3-2h-5l-2 3 1 4 1 2 6-1 1-1h17l3 3 7 1 4-4-1-7-4-3zm1 31-3 4-5 1h-7l-11-3-3 2v5l2 2 5-1 2-1h16l6 4 6-1 2-3-1-7-2-2zm-37 26-6 3-4 6h-27l-6-4-8 1-2 2v7l5 5 7-1 5-3 5-1h20l6 8 2 1h9l5-3 3-7-2-9-3-3zm19 30-4 5h-18l-2-2h-6l-1 4 2 5h5l3-2h16l5 4 6-1 3-4-1-6-4-3z" fill="#6A6781"/>
<path transform="translate(589,901)" d="m0 0h44l7 18 14 37 10 26 2 1 16-44 11-30 4-8h43l1 3v126l-1 1h-35l-1-3v-34l1-30-3 4-5 13-12 36-5 13-1 1h-28l-4-6-19-58-2-4-1 67-1 1h-35l-1-129z" fill="#696780"/>
<path transform="translate(1573,901)" d="m0 0h37l7 10 14 22 22 33 3 5 2 1v-71h36v129l-1 1h-34l-5-5-14-21-13-20-12-18-5-6v69l-1 1h-35l-1-1z" fill="#696680"/>
<path transform="translate(1376,901)" d="m0 0h36l7 9 10 16 13 20 16 24 2 2v-65l1-6h35l1 3v125l-2 2h-34l-8-10-15-23-13-20-10-15-2-2-1 69-1 1h-34l-2-6v-122z" fill="#696680"/>
<path transform="translate(1777,899)" d="m0 0 14 1 14 4 10 6 10 9 6 8 4 8 1 8-2 1h-35l-3-1-5-5-6-3-5-1-13 1-8 4-7 8-4 11v15l3 10 5 8 10 6 11 2h8l11-4 7-7 2-5h-34l-1-1v-22l1-3h67v34l-3 7-7 10-6 7-11 8-13 6-17 3h-9l-15-2-15-6-11-8-7-7-7-11-4-10-3-12v-21l3-12 5-12 9-12 9-8 16-8 11-3z" fill="#6A6780"/>
<path transform="translate(1273,900)" d="m0 0h25l21 1 14 3 10 5 8 7 6 10 3 11v11l-4 13-7 9-7 6-10 5 11 18 17 29 1 3h-40l-4-5-18-34-5-8-4-1 1 47-1 1h-34l-1-1-1-7v-120l1-2zm19 31-1 1v26l3 1h17l8-3 3-3 1-3v-10l-4-6-9-3z" fill="#696680"/>
<path transform="translate(1154,901)" d="m0 0h41l3 5 11 31 18 48 9 26 6 17-1 3h-37l-7-20h-45l-6 18-2 2h-37l1-6 17-47 15-40 12-34zm19 42-11 33-1 6h27l-2-8-10-30z" fill="#696680"/>
<path transform="translate(1041,900)" d="m0 0h18l39 1v11l-1 18-46 1-1 20h41l1 1v26l-1 1h-41v23h43l4 1 1 3v24l-1 1h-82l-1-1-1-126 1-3z" fill="#696680"/>
<path transform="translate(924,901)" d="m0 0h36l1 1v101l39 1 1 1v25l-1 1h-76l-1-74v-54z" fill="#696680"/>
<path transform="translate(762,900)" d="m0 0 35 1v129h-36l-1-10v-119z" fill="#696680"/>
<path transform="translate(1517,901)" d="m0 0h36v129h-36l-1-127z" fill="#696680"/>
<path transform="translate(465,1056)" d="m0 0 6 1v2h4v2l4-1v5l-3 2 3 1v2h-2l-2 11h-2l1 6 2 1h-2l-2 4-5 3 1 2-4 4h-7l-5 2-1 2 4 2-1 1-9-1v2l-7 1v6l-2 5v2l-5-1-3 3-7 3-5 3-1 2-6-1-9 3h-2l-1 3h-3l-1 3-6-1v2h-3v-2l-8 5-8 3-4-1h-4l-1-4-4-1-2-6 3-2-1-7h2v-3l5-3 9-2 5-5 10-4 4-1 3-1 1-3h4l1 2 2-2 5-4-1-5 1-1-4-2v-2h10l5-3 2-3 1-7h1l1 7h19v-2l5-2 2-1h-2l1-9 2-3 1-2 2 1v-2l-17-1v-1h16l3 2v2l8-1 2-3v-6z" fill="#707485"/>
<path transform="translate(1172,1075)" d="m0 0h15l5 5 7 10 15 23 2 2 1-39 1-1h16v69l-1 1h-14l-5-4-19-29-5-7-2-1v40l-2 1h-13l-2-2v-67z" fill="#747889"/>
<path transform="translate(272,863)" d="m0 0 8 1 5 3 4 8 1 9 7 8 8 7 13 1h63l5 2 23 23 12 3 6 4 2 5v9l-4 6-5 3h-11l-6-5-3-7-2-9-18-18-79-1-8-7-13-13-12-3-6-5-3-7 1-8 6-7zm140 70-3 3v8l3 4h7l6-4 1-4-5-6z" fill="#706D85"/>
<path transform="translate(1613,1075)" d="m0 0h18l7 10 11 17 8 13h1v-33l1-7h16v70h-15l-7-8-12-19-9-13-2-1 1 40-1 1h-16l-1-1z" fill="#747888"/>
<path transform="translate(216 1e3)" d="m0 0h8l7 4 4 8 1 9 8 8 4 5 3 2 77 1 7 4 10 10 7 8 4 3 10 2 6 4 2 4v4l-5-1-3-4-8-1-4 3v6l3 4h7l7-4h3v5l-2 3h-2v2l-6 3h-8l-5-3-4-6-1-10-14-15-5-5-14-1h-66l-8-7-14-14-12-3-5-5-2-5v-7l2-5 6-5z" fill="#6D6A83"/>
<path transform="translate(226,923)" d="m0 0 9 1 5 3 4 8v7l3 5 6 5 5 6 2 1 52 1 28 1 7 6v2l3 1 7 8 7 7 13 3 5 4 1 2v6l-5-2-3-3-7-1-4 3v8l3 3 7-1 6-4 4 1-2 5-5 5-3 1h-10l-6-5-3-7-1-8-12-12-6-7-3-1h-76l-5-3-17-17-12-3-6-5-3-6v-6l3-6 6-5z" fill="#6E6C84"/>
<path transform="translate(1513,1074)" d="m0 0 12 1 10 4 10 9 3 5v4h-15l-6-2-5-3-4-1h-7l-7 4-4 5-2 7v7l3 8 5 5 5 2h12l7-4 3-5v-2h-18l-3-1v-10l4-2h32l1 1 1 12-2 8-6 9-11 8-7 2h-16l-9-3-6-4-5-5-5-8-3-10v-10l4-13 6-8 11-7z" fill="#767A8A"/>
<path transform="translate(658,1075)" d="m0 0h31l12 3 7 5 4 7 1 10-3 7-7 8-6 2 5 9 11 17v2h-18l-5-5-10-19-5-3v25l-4 2h-12l-1-1-1-57zm19 14-2 1v16l1 1h12l5-3 2-3v-6l-3-4-12-2z" fill="#767A8A"/>
<path transform="translate(1154,901)" d="m0 0h41l3 5 11 31 18 48 9 26 3 9h-2l-4-9v-2l-4-2-3-4-8-18-6-22-4-11-6-18-3-4-6-18-4-3h-8l-8 2-4 5v6l-4 5-2 6-6 4h-4l-1 4-5 13-2 4-2 6v11l4 4v4l-5 3-1 6-9 3-8 10-7 12-1 3-7 4 3-10 20-55 9-24 11-31z" fill="#737787"/>
<path transform="translate(1573,901)" d="m0 0h37l7 10 14 22 22 33 3 5 2 1v-71h36v128h-1l-1-9v-98l-1-12-3-2h-7l-9 3-4 1-2 4-2 27 1 4v14l-1 8-1 6-4 7-7 1v-4h3v-2l-2-1 1-4h-3l-1-5-4-1-3-6-7-6-6-13-7-8-4-5-1-5h-2l-6-8-1-3-9-2h-9l-7 2-2 23-1 39v10l-2 22-2 11-1 7-2 6h-1z" fill="#717586"/>
<path transform="translate(836,951)" d="m0 0h36l25 1 1 1v28l-1 1h-83l-1-1v-28l1-1z" fill="#696680"/>
<path transform="translate(1023,1075)" d="m0 0h17l3 4 9 25 14 39v2h-17l-3-4-3-7-26-1-2 10-2 2h-16l-1-3 11-30 10-28 4-8zm7 21-2 2-6 19v3h17l-2-10-4-12z" fill="#777B8B"/>
<path transform="translate(606,1075)" d="m0 0h18l4 6 15 44 6 15v5h-15l-3-3-3-8h-26l-4 11h-18l1-6 17-46 6-16zm8 20-7 19-1 6h17l-1-7-6-17z" fill="#767A8A"/>
<path transform="translate(1711,1075)" d="m0 0h18l10 4 9 7 5 10v3l-5 1-13-1-8-7-3-1h-9l-7 4-4 7-1 4v7l3 9 7 6 2 1h9l8-5 3-3h17l1 3-4 8-7 7-10 5-4 1h-16l-11-4-9-8-6-12-1-3v-16l4-11 8-9 9-5z" fill="#757889"/>
<path transform="translate(924,1074)" d="m0 0 12 1 9 4 8 6 5 6 2 4-1 4-1 1-16-1-9-7-2-1h-9l-8 5-4 10v7l3 9 5 5 4 2h9l9-6 2-2h17l1 4-7 10-8 6-6 3-5 1h-16l-10-4-8-7-4-6-4-11v-16l5-12 8-8 12-6z" fill="#75798A"/>
<path transform="translate(1041,900)" d="m0 0h18l39 1v11l-1 18-4-1 2-1v-9l-2-9-3-4-14 1-16 3-10 3-3 2-8 1-2 4-3 7-3 5h2v3h-2v9l3 3-2 6v7l-8 26-2 10-2 23-3 7-1 4h6v1h-7l-1-1-1-126 1-3z" fill="#727686"/>
<path transform="translate(1376,901)" d="m0 0h36l7 9 10 16 13 20 16 24 2 2v-65l1-6h35l1 3-1 11-3-3-2-5h-7l-5 2-8 1-3 14-2 20v13l-2 12-2 6-5-3-2-4-3 1v-2l-4-1-2-2v-3l-3-3-7-12-2-4h-2l-7-10-7-12-6-7-5-3h-11l-6 1-3 6-1 12-1 2 1 4v14l-3 14v20l-1 26-2 13-4 4-1-1v-122z" fill="#797D8D"/>
<path transform="translate(1559,1075)" d="m0 0h42l1 1v12l-1 1h-25l1 13 21 1 1 1v11l-1 1h-22l1 14 24 1 1 1v12l-1 1h-41l-2-4v-65z" fill="#767A8A"/>
<path transform="translate(1305,1075)" d="m0 0h43l1 6-1 8h-25v13l22 1v13l-22 1v14h25l1 13-1 1h-42l-1-1z" fill="#717586"/>
<path transform="translate(1764,1075)" d="m0 0h43v13l-1 1-24 1v12l21 1 1 1v12l-22 1-1 13 26 1v14h-42l-1-1z" fill="#707485"/>
<path transform="translate(697,901)" d="m0 0h43l1 3-1 101h-1l-1-5v-39l-1-39-3-11-6-1-4 4h-3l-1 8-4 6-3 1 1 3-1 10-5 1-1 8-5 1-1 4-4 2-5-1v2l-6 4-3 3-1 3h-2l-2 4-3 2h-3l-1 2h-3l17-46 8-22z" fill="#717586"/>
<path transform="translate(811,1075)" d="m0 0h46v13l-1 1h-27v13l20 2 1 2-1 10h-21v28l-2 1h-13l-2-1z" fill="#737787"/>
<path transform="translate(924,901)" d="m0 0h36l1 1v101l3 2-5-1-1-1-2-19v-42l-1-5-1-17-3-8-4 1-6 3-3 4-1 10-2 3-1 16-1 13-1 12v14l-1 17-1 12-5 13 2 1h-3l-1-74v-54z" fill="#757889"/>
<path transform="translate(1273,900)" d="m0 0h25l21 1 14 3 10 5 8 7 6 10 1 4h-2l-4-8-11-6-8-3-9-2-8 1-29 1-14 3-1 3-4 4-4 9-2 16v23l-3 27-3 11h-1l-1-5v-101l1-2z" fill="#7B7E8E"/>
<path transform="translate(720,1075)" d="m0 0h54v13l-2 1-16 1v53l-3 2h-14l-2-3v-52l-17-1-1-11z" fill="#757989"/>
<path transform="translate(1242,1075)" d="m0 0h54v14h-18v55l-1 1h-15l-2-7v-48l-18-1-1-4z" fill="#737788"/>
<path transform="translate(1517,901)" d="m0 0h36v127h-1l-1-31-1-14v-9l-1-4v-17l-1-15v-18l-2-9-4-1-9 5h-2l-3 9-1 5 1 8-1 8-1 4-1 25-1 19-1 17-2 12-3 7h-1l-1-126z" fill="#707485"/>
<path transform="translate(1359,1075)" d="m0 0h16l1 1v56h22l1 4v8l-1 1h-39l-1-1v-68z" fill="#808392"/>
<path transform="translate(1406,1075)" d="m0 0h16l1 1v56h22l1 1v11l-1 1h-38l-1-1-1-10v-57z" fill="#7C8090"/>
<path transform="translate(1073,1075)" d="m0 0h17l1 56 22 1v12l-1 1h-38l-1-1z" fill="#727686"/>
<path transform="translate(1777,899)" d="m0 0 14 1 14 4 10 6 10 9 6 8h-3l-5-5v-2l-6-2-4-4-9-5-5-1-3-1-10-2h-9l-11 2-8 4-8 6h-2l-2 4-5 4-5 6-6 3-5 7h-2l-3 9-2 4-1 6v10l2 13 4 10 2 12 5 5 2 4h3l3 6-5-2-9-9-7-11-4-10-3-12v-21l3-12 5-12 9-12 9-8 16-8 11-3z" fill="#747888"/>
<path transform="translate(762,900)" d="m0 0 35 1v127l-2-4-2-39v-23l-1-12v-19l-2-21h-8l-8 5h-2l-3 9-1 8-4 72-2 20h-2v-123z" fill="#747888"/>
<path transform="translate(970,1074)" d="m0 0h17l2 3-1 68h-17l-1-2z" fill="#7A7D8D"/>
<path transform="translate(865,1075)" d="m0 0h18v69l-1 1h-16l-1-1z" fill="#787C8C"/>
<path transform="translate(781,1075)" d="m0 0h18v69l-1 1h-16l-1-1z" fill="#797D8D"/>
<path transform="translate(1453,1075)" d="m0 0h18v70h-17l-1-5z" fill="#7B7F8E"/>
<path transform="translate(589,901)" d="m0 0h44l7 18 14 37 9 23-1 3-5-4-11-28-8-16-7-21v-2l-10-2-12 3v2h-2l-1 4-5 6h-2l-3 10-3 20-1 3-1 8-2 1-1-64z" fill="#737788"/>
<path transform="translate(1143,1075)" d="m0 0h15l1 1v68l-1 1h-15l-1-1v-68z" fill="#727686"/>
<path transform="translate(836,951)" d="m0 0h36l25 1 1 1v28l-4 1 2-1-1-15-2-6-3-2-13-1-13 1-36 2-6 2-5 8h-2l2 11 2 1h-5l-1-1v-28l1-1z" fill="#7A7E8E"/>
<path transform="translate(1615,966)" d="m0 0 7 1 2 5 3 1 4 5 4 4 5 7v2l5 1v-6l5 1 2 7h5 3l-1 4h-2l-1 8 1 11 1 5-1 5-4-2-26-40-12-18z" fill="#727687"/>
<path transform="translate(1461,901)" d="m0 0h35l1 3-1 11-3-3-2-5h-7l-5 2-8 1-3 14-2 20v13l-2 12-2 6-4-2 2-1v-65z" fill="#7B7F8F"/>
<path transform="translate(1421,971)" d="m0 0 8 1 6 9 1 4 4 4v2l5 2 2 1 2-7 8-2 2 1-1 3-4 1-3 1v5l4 1 2 1 2 12 1 11 1 9-5-5-18-27-13-20z" fill="#747888"/>
<path transform="translate(1049,930)" d="m0 0 2 1-1 20h41l1 1v14l-2-3-1-6-2-1h-14l-12 3h-13l-3-3-1-9 3-7z" fill="#767A8A"/>
<path transform="translate(1290,933)" d="m0 0h1v25h20l8-3 3-5v-10l-1-4h3v2h2l3 7-1 7-3 6-5 3-3 3-10 2-9 1-7-4-2-4-1-11 1-3z" fill="#7D8090"/>
<path transform="translate(1180,956)" d="m0 0 7 3 1 3 2 1 1 1v11l1 5-4 5-11 3-10-3-7-1v-2h-3l1-3 4-7 2 1-3 9h27l-8-24z" fill="#757989"/>
<path transform="translate(496,968)" d="m0 0 2 1 2 13 1 22 8 17 11 18 1 2-4-2-1-4h-2l-5-5-6-15-3-3v-3h-2l-2-6-1-4v-13l-1-10 1-5z" fill="#828594"/>
<path transform="translate(1298,988)" d="m0 0 3 3 6 2 8 11 4 11v9l1 5-3-3-18-34z" fill="#747889"/>
<path transform="translate(330,1140)" d="m0 0h1l2 8 4 5 1 5-4 9-2 1 1 7v3h47l5 1v1h-54l-1-1z" fill="#727687"/>
<path transform="translate(483 1e3)" d="m0 0h2v7l-1 2-1 5-1 2h-13l-4-5 2-6 3-1 6 4 6-1z" fill="#777B8B"/>
<path transform="translate(279,985)" d="m0 0h48v1l-38 2-4 2h-3l-1 5-2 6-2 4v-16z" fill="#767A8A"/>
<path transform="translate(1331,981)" d="m0 0 3 3 21 35h-3l-3-3-2-6-3-1v-2l-3-1-9-15z" fill="#797D8D"/>
<path transform="translate(383,888)" d="m0 0h14l19 2 5 1-1 3h-23l-4 1-7-5z" fill="#808392"/>
<path transform="translate(450,976)" d="m0 0h17v1l-8 1-2 6-4 3-6-1-5-3-1-2h3v-2z" fill="#717586"/>
<path transform="translate(330,1163)" d="m0 0h1l2 10v5h47l5 1v1h-54l-1-1z" fill="#888B99"/>
<path transform="translate(272,863)" d="m0 0 8 1 5 3 4 8-2 1-3-6h-2v-2h-2v-2l-7 1-10 4-2-1 7-6z" fill="#878A98"/>
<path transform="translate(504,1016)" d="m0 0 3 1 11 19 3 5-4-2-1-4h-2l-5-5-4-10z" fill="#7B7E8E"/>
<path transform="translate(1770,960)" d="m0 0h1l1 19 1 2 33 1v5l-2-1 1-3h-34l-1-1z" fill="#8E929F"/>
<path transform="translate(437,896)" d="m0 0 12 5 13 8-3 1-3-1v-2l-9-3-10-6z" fill="#8A8E9B"/>
<path transform="translate(326,1122)" d="m0 0 4 2 2 5-1 9-2 2z" fill="#7B7F8F"/>
<path transform="translate(1199,1013)" d="m0 0h2l4 7v8l-2 1-4-13z" fill="#797C8C"/>
<path transform="translate(1095 1e3)" d="m0 0h2l1 3v17l-2 2-1-1z" fill="#9EA1AC"/>
<path transform="translate(450,941)" d="m0 0 4 5 4 4v2l-6-2-4-2v-5z" fill="#797D8D"/>
<path transform="translate(1789,998)" d="m0 0 2 1-1 2-14 2v-1l-5-1v-2h14z" fill="#848796"/>
<path transform="translate(637,992)" d="m0 0 3 3 1 6h2l1 2v6l-2 1-5-15z" fill="#7A7E8D"/>
<path transform="translate(434,969)" d="m0 0h5l4 2-1 6-5-2-1-5z" fill="#737788"/>
</svg>
