<?xml version="1.0" encoding="UTF-8"?>
<svg version="1.1" viewBox="0 0 2048 2044" width="614" height="613" xmlns="http://www.w3.org/2000/svg">
<path transform="translate(308,837)" d="m0 0 6 2 18 10 21 13 30 18 19 12 10 7 2 4-8 5-10 4-1 5v28l5 2-1 12-2 7-2 1-10-1-2-10v-8l3-5 1-26-16 6-1 26v18l4 5 6 5 10 14 7 14 4 15 2 11v20l-5 19-8 16-12 16-20 25-9 15-5 13 1 4 4 4 1 7-2 5 2 4-1 7-5 5-4 2-3 9-5 5h-44l-5-3-3-5-1-7-6-2-3-3-1-6 1-9v-9l4-4-1-9-4-9-6-10-12-16-9-11-10-13-8-13-5-13-3-16v-21l3-16 7-16 7-11 8-10 7-6 1-5v-40l-14-7-24-10-5-4 1-5 38-24 32-19 17-10zm-35 126-9 2-9 6-9 8-11 15-7 14-4 14-1 6v22l4 17 4 9 6 10 13 16 10 13 11 15 7 14 4 13h11l3-1v-111l5 2v108l6 2 9-1v-76h7v76l7 1 6-1 5-14 8-14 9-12 11-14 9-11 9-14 4-10 4-17v-20l-3-15-6-16-9-14-11-12-11-8-9-2z" fill="#606469"/>
<path transform="translate(1131,892)" d="m0 0h9l4 4 8 20 16 42 15 39 10 25 2 4 6 3h10l5-4 1-4v-116l-1-3-9-4-4-2 1-3h72l16 2 13 5 9 7 5 8 2 7v13l-4 10-7 9-11 7-12 4h-5v2l10 2 12 6 5 5 5 10 8 32 4 4h6l3-2h4l-1 4-7 6-5 2-7 1h-12l-9-2-8-7-4-9-5-25-4-15-5-8-3-2-16-1h-2l1 56 2 3 11 3 2 3-1 1h-122l-3-1 1-3 10-3 2-2-1-9-11-33v-2h-43l-3 10-5 14-2 7v9l2 4 15 6-1 3h-18l-23-1 1-3 8-6 5-8 16-41 14-36 8-19 8-21 4-6zm131 5-8 3-2 3-1 6v54h15l11-4 6-7 3-8 1-6v-18l-3-10-4-6-5-4-12-3zm-142 30-6 14-13 34v1l37 1 1-3-14-40-3-7z" fill="#849082"/>
<path transform="translate(474,893)" d="m0 0h49l3 4 22 55 14 33 2 1 3-10 16-41 12-30 4-11 26-1h19l2 2-11 6-2 2-1 5v114l2 5 5 2 7 2v3h-63l1-4 9-2 4-4 1-3 1-23v-66l-1-17-13 34-20 51-10 26-4 9-4-1-7-15-9-22-20-48-11-27-5-12v-2h-2l1 2 1 104 2 9 5 4 10 3 2 3-1 1h-40v-3l10-5 3-3 1-8v-112l-4-3-9-3z" fill="#849082"/>
<path transform="translate(1763,890)" d="m0 0h28l10 3 13 7 4 3h3l5-12 4 1v21l-1 27-4 1-3-5-3-15-5-10-9-8-8-4-8-2h-14l-10 4-7 6-7 11-6 18-3 24v11l2 19 4 17 6 12 5 5 8 5 9 2h9l8-3 4-5v-35l-2-5-5-3-11-3-1-3 45-1h16l2 1-2 4-5 3h-2l-1 52-2 1-4-3-3-7-7 1-21 10-10 2h-16l-17-3-13-5-11-8-7-7-8-13-5-16-2-16 1-17 4-16 4-10 7-10 9-10 13-9 12-5z" fill="#606469"/>
<path transform="translate(947,893)" d="m0 0h107l1 1v14l-1 28-3 1-4-4-5-18-5-8-6-5-11-3h-17l-6 3-1 2-1 56 12-1 6-3 4-5 4-8 4-9 4 1 1 57h-5l-5-14-7-8-8-3-10-1 1 58 4 4h26l8-3 7-6 5-10 6-21 5-1 1 1 1 45-1 1h-110l-1-3 10-3 4-5v-117l-3-5-12-5z" fill="#849082"/>
<path transform="translate(1344,893)" d="m0 0h32l4 2 22 28 12 15 11 14 12 14 11 14 4 4v-70l-2-9-6-5-9-3v-4h38l2 2-8 5-5 4-1 2-1 11-2 118h-9l-5-5-11-13-10-13-8-10-20-26-11-14-9-11-10-13-2-2 1 92 2 4 8 4 8 3v3h-41l1-3 8-4 3-4 2-8v-111l-4-4-10-4v-2z" fill="#859183"/>
<path transform="translate(1561,893)" d="m0 0h35l5 5 13 16 8 10 18 22 13 16 8 10 9 11v2h2l-1-9v-60l-1-9-4-6-12-4-2-1 1-3h38l2 1-2 4-8 4-3 4-1 4-1 87v37l-1 1h-9l-5-5-13-16-10-13-8-10-13-16-13-17-14-17-9-12-1 4v86l3 5 7 4 9 3v3h-40v-3l8-4 4-5 1-6v-112l-4-4-9-4z" fill="#838F82"/>
<path transform="translate(826,893)" d="m0 0h63l1 3-13 5-2 3-1 21v97l2 5 2 1h23l10-4 7-6 8-16 4-16 6-1 1 49h-111l-1-3 12-4 2-2 1-21-1-101-4-3-9-4z" fill="#606469"/>
<path transform="translate(658,893)" d="m0 0h61l2 1v2l-11 5-3 3v121l4 3 10 3v3h-62l-1-3 10-3 3-2 1-3v-119l-3-3-11-5z" fill="#849082"/>
<path transform="translate(1485,893)" d="m0 0h62l2 2-5 3-8 4-1 1-1 9v110l1 4 7 3 6 2v3h-62l-1-3 11-3 3-4 1-4v-113l-2-5-13-7z" fill="#849082"/>
<path transform="translate(1131,892)" d="m0 0h9l4 4 8 20 16 42 15 39 10 25 2 4 4 2-4 1v-2h-5l-6-11-3-5-2-1-5-13-2-4v-3h-2l-3-10-4-5-1-7-6-13-3-7-2-2-2-3v-3l-6 1-1 2-2-2 1 6v7l1 5h2v6l3 11 4 7-1 2 4 1 2 4v5l3 1 2 7 3 5 1 9v8l-9 4-10 1 4-2 4-3-1-9-11-33v-2h-43l-3 10-5 14-2 7v9l2 4 15 6-1 3h-18l-23-1 1-3 8-6 5-8 16-41 14-36 8-19 8-21 4-6zm-11 35-6 14-13 34v1l37 1 1-3-14-40-3-7z" fill="#849082"/>
<path transform="translate(983,903)" d="m0 0h2l1 8 2 25v28l1 11v39l3 11 6 2 2 1h26l8-3 7-6 5-10 6-21 5-1 1 1 1 45-1 1h-110l-1-3 16-5 2-2 1-9 1-19 1-26 1-40 2-20h2v-2h2l1-3z" fill="#606469"/>
<path transform="translate(852,1084)" d="m0 0h27v2l-7 4-1 4v53l2 4 8 2 5-5 6-14 12-31 7-17 2-2 4 1 18 48 7 16v2l3 1h7l3-5v-57l-8-4v-2h29l-3 3-5 2-1 6v56h19l6-3 3-9 2-5h4v21l-7 1h-46l-26-1 2-3 5-1-6-18-1-4-23 1-5 15 1 5 5 3 1 2-29 1h-19l1-3 5-3v-60l-7-4zm58 14-7 19-2 5v3l19 1-2-9-6-18z" fill="#849082"/>
<path transform="translate(606,924)" d="m0 0h3 12l3 5 2 22v39l1 24 3 7 1 4 8 4 7 2v3h-63l1-4 9-2 4-4 1-3 1-23 1-59 1-9 1-3z" fill="#616569"/>
<path transform="translate(497,1084)" d="m0 0 4 1 14 35 9 24 5 8h7l2-1 1-9v-51l-3-3-5-2 1-2h35l8 3 7 6 2 4v10l-4 7-8 6-2 1 6 3 4 8 4 15v3h10l-2 4-6 3h-6l-5-4-10-30h-15l1 26 1 2 6 3v2h-28l-23-1v-2l7-2-6-18-1-4-23 1-6 16-1 4 9 3 1 2h-21l3-5 4-6 12-30 11-28zm57 3-4 4v29h8l10-4 4-6 1-3v-10l-4-6-8-4zm-59 11-6 15-3 9v3l19 1-2-9-6-18z" fill="#838F81"/>
<path transform="translate(826,893)" d="m0 0h63l1 3-13 5-2 3-1 21v97l2 5 2 2-4-1-5-3-2-5 1-19-2-42-1-5v-16l-1-9v-10l1-5-2-7 4-2-1-4-12 1-1 5 5 1v3 5h-2v8l1 5-3-2v16l-2 19v13l-1 5-2 40-4 7-7 3-6 1v-2l6-3 1-1 1-21-1-101-4-3-9-4z" fill="#849082"/>
<path transform="translate(499,900)" d="m0 0h15l5 4 11 22 8 18 3 10 4 8 7 20 5 6h2l3 12-3 10-2 3-2 8h-2v2l-6 1v-3h-2l-4-14-3-13-3-9-3-5-5-18-5-5v-2l-4-1-2-5-2-9-4-7-7-4-1-6 3-2-3-9-3-8z" fill="#606469"/>
<path transform="translate(1823,973)" d="m0 0h16l2 1-2 4-5 3h-2l-1 52-2 1-4-3-3-7-7 1-21 10-10 2h-16l-8-1-1-2h6l-2-6 13 3h9l8-3 4-5v-35l-2-5-5-3-11-3-1-3z" fill="#616569"/>
<path transform="translate(1763,890)" d="m0 0h28l10 3 13 7 4 3h3l5-12 4 1v21l-1 27-4 1-3-5-3-15-5-10-9-8-8-4-8-2h-14l-10 4h-3v-2l-2 1v-2l-5 2-4 1-8 3-5 5-8 9-2 5-2 3-2 6h-2l-2 10-3 4-2 6-2 12 1 15 2 11 4 10 5 11 2 5 5 4v3h2v2l4 1-1 2-9-6-8-8-8-13-5-16-2-16 1-17 4-16 4-10 7-10 9-10 13-9 12-5z" fill="#838F81"/>
<path transform="translate(1241,926)" d="m0 0h1l2 17 1 9 2 6 3 3v2h18l1 2-1 2-17 1 1 56 2 3 11 3 2 3-1 1-52-1 3-2 10-5 2-7-1-10 2-12 1-12v-6l1-1 2-40 4-8 1-3z" fill="#606469"/>
<path transform="translate(1522,921)" d="m0 0h2l1 16-1 3h2l1 2 1 30v16l3 22 2 15 9 4 6 2v3h-62l-1-3 8-2 9-1 5-4 2-9 1-10 2-6 2-16v-7l1-2v-21l-1-9 2-4v-2l3-10h2z" fill="#61666A"/>
<path transform="translate(1145,939)" d="m0 0 4 1 2 5 3 3 4 8 5 12 2 9 3 3 2 10h2l5 11 2 9 3 1 8 14v2h5v2h6l7 3v1l-64 1-3-1 1-3 14-2 8-3v-13l-3-8-2-3-1-5-2-1-2-9-4-1-1-4-3-5-3-13 1-4h-2l-2-5v-8l-1-5 2-1 1 2 3-1z" fill="#606469"/>
<path transform="translate(689,946)" d="m0 0 8 3 2 16 2 33-1 3 1 16 3 3 1 5 4 2 12 4v3h-62l-1-3 15-4 4-1 2-9 5-43 2-7v-2l-1-1v-10z" fill="#61656A"/>
<path transform="translate(1286,970)" d="m0 0 11 1 10 6 6 10 5 19 4 16 4 4h6l3-2h4l-1 4-7 6-5 2-7 1h-12v-2l-5-2-2-4 1-5h2v-6l-5-5-3-1-5-11-2-9-6-13v-2h-3v-2h-2v-2l3-2z" fill="#606469"/>
<path transform="translate(1393,940)" d="m0 0 9 3 5 5v2h2v2l4 1 4 5 5 2 7 6 4 5v2l4 2 2 5 5 2 6 4 1 2 7 3v43h-6l-3-4-3-10h-2l-2-5-4-7-4-5-3-7v-6l2-3-4-1h-7l-5-7v-2l-5-2-3-3v-6l-5-2-3-10v-3l-5-3-3-5z" fill="#606469"/>
<path transform="translate(1064,1084)" d="m0 0h19l5 5 10 15 15 23 4 7v2h2l-1-2-1-43-8-6v-1h22l-4 4-3 1-2 67-4-2-8-10-12-19-13-20-7-10h-1l1 9 1 45 7 5v2h-20l6-7 1-2 1-56-10-6z" fill="#859183"/>
<path transform="translate(1542,1084)" d="m0 0h18l5 5 14 22 10 15 4 7 1-44-6-2-3-3h23l-4 4-4 2-1 7v59l-4-1-9-12-11-18-10-15-9-14-1-1 1 55 7 4v2h-20l1-3 5-3 1-3 1-55-4-4-5-3z" fill="#849082"/>
<path transform="translate(1482,1084)" d="m0 0h51v18h-4l-3-10-3-3-4-1h-14l-3 3-2 26 13-1 2-10 3-1 1 11v17h-4l-3-9-3-2-8-2v16l1 14 10 2 10-1 5-3 5-13 3-1v21l-2 1h-50l1-3 4-1 1-4v-58l-7-4z" fill="#849082"/>
<path transform="translate(1713,1083)" d="m0 0 20 1 1 1v16l-1 2-3-1-4-11-3-2-5-1h-12l-3 1-1 3-1 25 12-1 2-10 4-1 1 28h-4l-4-10-10-2v30h20l6-4 3-10 1-4 3 1v21l-1 1h-51l1-3 5-3 1-6v-53l-3-3-5-2v-2z" fill="#859183"/>
<path transform="translate(1198,1084)" d="m0 0h52v13l-1 6h-2l-5-12-2-2-4-1h-14l-3 3-1 13v12h11l4-10 2 1v26l-3-1-2-8-12-3 1 29 2 1h18l5-2 2-5 3-10 3 1v20l-5 1h-48v-2l6-4 1-1 1-39v-17l-2-4-7-4z" fill="#838F81"/>
<path transform="translate(1438,1083)" d="m0 0h15l7 2 4 3h2l3-4h2v23l-4-2-4-10-7-6-7-2h-7l-8 4-4 5-4 10-1 5v17l3 13 5 7 9 4h11l5-3 1-2v-13l-3-6-7-3v-1h26l-3 6-1 24-4-2-4-1-7 5-5 1h-10l-11-3-9-7-5-8-3-11v-16l4-12 6-9 9-6z" fill="#849083"/>
<path transform="translate(692,1084)" d="m0 0h51l1 3-1 19-3-2-4-11-3-3-5-2h-13l-3 3-1 23v5l9-1 4-3 3-8 3 1v27l-3-1-3-9-4-1h-9v13l1 14 7 2 1 3h-27l1-3 5-3v-60l-7-5z" fill="#849082"/>
<path transform="translate(737,971)" d="m0 0h72l1 3-1 14-1 1-71-1-1-1v-15z" fill="#61666A"/>
<path transform="translate(1136,1084)" d="m0 0h56v22l-3-1-4-13-6-4h-9v63l6 1 3 2v2h-30l1-3 7-4 1-62-9 1-5 3-4 11-1 3h-4v-20z" fill="#849082"/>
<path transform="translate(809,1083)" d="m0 0h14l9 3 2 2h3l3-4h3l-1 23h-3l-5-12-2-4-5-2-8-2-10 1-7 6-5 12-1 6v15l2 10 5 9 4 4 5 2h12l8-5 4-9 2-7h4l1 24-4-2-2-2-4 1-7 4-6 1h-8l-9-2-9-6-7-10-3-10-1-11 2-11 4-9 6-8 7-5z" fill="#859183"/>
<path transform="translate(1639,1083)" d="m0 0h15l9 3 4 2 2-4h3v18l-1 6h-2l-4-12-5-6-5-2-10-1-8 3-6 7-3 9-1 5v16l3 12 5 8 5 4 3 1h12l7-4 4-8 2-9 3-1 1 13v7l-1 5-3-1-1-3-5 2-5 3-5 1h-9l-9-2-9-6-6-8-4-11v-20l5-13 8-9 7-4z" fill="#859183"/>
<path transform="translate(596,1084)" d="m0 0h56l1 3-1 19-3-1-4-12-4-4-3-1h-8v59l1 3 8 4v2h-30l1-3 5-3h2l1-24v-38h-9l-6 3-2 5-2 9-2 1-1-2-1-19z" fill="#849082"/>
<path transform="translate(1318,1084)" d="m0 0h28v2l-7 4v60l2 1h16l7-2 3-11 1-4h4v20l-2 2h-51v-2l6-4 1-3v-57l-8-4z" fill="#849082"/>
<path transform="translate(1299,908)" d="m0 0 4 1 10 5 4 4 2 14v9l-6 10-10 8-9 4h-10l-1-4h2l2-6h2l1-5h2l1-8 2-8 1-15-2-4h2l1-3z" fill="#606569"/>
<path transform="translate(497,1084)" d="m0 0 4 1 14 35 9 24 2 6-2 3h-10l1-3-4-9-4-10v-2l-23 1-6 16-1 4 9 3 1 2h-21l3-5 4-6 12-30 11-28zm-2 14-6 15-3 9v3l19 1-2-9-6-18z" fill="#849082"/>
<path transform="translate(1260,1084)" d="m0 0h27v2l-7 3-1 6v56h19l6-3 3-5 1-8h4v20l-1 1h-50l2-4 4-3v-59l-7-4z" fill="#859183"/>
<path transform="translate(1378,1084)" d="m0 0h28l-3 3-5 3-1 8 1 52 7 4v2h-26l1-3 4-3 1-3v-57l-7-4z" fill="#849082"/>
<path transform="translate(1031,1084)" d="m0 0h29l-3 3-5 3-1 2v56l4 4 4 2v2h-27l1-3 5-3 1-17v-41l-1-3-6-3z" fill="#849082"/>
<path transform="translate(657,1084)" d="m0 0h28v2l-7 4-1 19v38l2 4 6 3v2h-26v-3l6-2v-61l-8-4z" fill="#838F81"/>
<path transform="translate(749,1084)" d="m0 0h28l-8 8v59l6 2 1 3h-26l1-3 5-3 1-3v-56l-3-3-5-2z" fill="#61656A"/>
<path transform="translate(852,1084)" d="m0 0h27v2l-7 4-1 4v53l2 4 8 3-2 2h-26l1-3 5-3v-60l-7-4z" fill="#849082"/>
<path transform="translate(1649,979)" d="m0 0h5v2l5 2 4 9 6 2 6 4 1 1 1 13v21l-4 1-6-1-2-3-2-9-5-4-2-4-3-11-4-9h2l-1-7-2-1z" fill="#606469"/>
<path transform="translate(504,929)" d="m0 0 8 5 4 8 2 12 4 1 6 7 6 21 4 6 2 11v4l2 1 2 10 1 6h2v3l6-1v-2h2l1-5 2-1-1 5-5 13-1 2-4-1-7-15-9-22-20-48-7-17z" fill="#849082"/>
<path transform="translate(932,985)" d="m0 0h4l1 49h-111l-1-3h2v2l107-1-2-7h-2l-1-4-5 1-1 2-3 1-1 2-6 1-1 3-6 1-6-1h-20l-2-2 23-1 10-4 7-6 8-16 4-16z" fill="#849082"/>
<path transform="translate(1054,987)" d="m0 0 4 1 1 45-1 1h-110v-1h109v-2l-4-1-5-4-3 1h-9l-1 3-5-2 5-4 6-5 5-10 6-21z" fill="#849082"/>
<path transform="translate(1697,1119)" d="m0 0 3 3 1 6 1 23h20l6-4 3-10 1-4 3 1v21l-1 1h-51l1-3 5-3 3-15v-10h2v-3z" fill="#849082"/>
<path transform="translate(737,971)" d="m0 0h72l1 3-1 14-1 1h-12v-1l7-2-2-6-7-2h-11l-12-1h-19l-6-1v2h-3v2h-2l1 6 2 2h-7l-1-1v-15z" fill="#849082"/>
<path transform="translate(1438,1083)" d="m0 0h15l7 2 4 3h2l3-4h2v23l-4-2-4-10-7-6-7-2h-7l-8 4-4 5-6 14-2 14h-3l-2-5-2-14 5-10 5-6 9-5z" fill="#849082"/>
<path transform="translate(1272,1090)" d="m0 0h4l2 8v49l-2 3h-5l-2-2v-44l1-8 3-4-2-1z" fill="#606469"/>
<path transform="translate(838,1131)" d="m0 0h4l1 24-4-2-2-2-4 1-7 4-6 1h-8l-9-2-9-6-5-7 1-2 5 5-1-9 2-3 7 13 4 4 5 2h12l8-5 4-9z" fill="#859183"/>
<path transform="translate(1797,984)" d="m0 0 3 1 3 7v14l-2 14-1 5 1 4 3-1 1 2-14 6-7 1h-16l-8-1-1-2h6l-2-6 13 3h9l8-3 4-5z" fill="#849082"/>
<path transform="translate(866,1094)" d="m0 0h2l1 6v46l-4 2-3-6-1-9 1-34 2-3h2z" fill="#606469"/>
<path transform="translate(1075,1093)" d="m0 0 2 2 1 9 1 45 7 5v2h-20l6-7 1-2 1-53z" fill="#859184"/>
<path transform="translate(1298,972)" d="m0 0 6 3 5 5 5 10 8 32 4 4h6l3-2h4l-1 4-7 6-5 2-3-1 7-3-1-2-6-2-7-5-3-8-1-13 1-1-1-7-2-5-3-5v-2l-4-2-5-6z" fill="#849082"/>
<path transform="translate(686,899)" d="m0 0h13l1 5-5 12-5 1h-3l-1 2-3-3-1-10-2-3v-3z" fill="#606469"/>
<path transform="translate(789,1102)" d="m0 0 5 1-1 8h-2v14h2l2 7v13l-3-1-5-5v-8l-2-6v-13h2l1-9z" fill="#606469"/>
<path transform="translate(545,1113)" d="m0 0h3l1 9v29l-5 1-3-3-1-17 2-9 1-7z" fill="#606469"/>
<path transform="translate(490,1024)" d="m0 0 9 1 9 4 5 2v3h-40v-3l8-2 6-3h3z" fill="#676C6D"/>
<path transform="translate(1578,1025)" d="m0 0 10 1 13 5v3h-40v-3l11-4z" fill="#696F6F"/>
<path transform="translate(1360,1025)" d="m0 0 9 1 13 5v3h-41l1-3 5-2 8-2z" fill="#676D6E"/>
<path transform="translate(1080,1025)" d="m0 0h7l6 3 8 1 5 2-1 3h-18l-23-1 1-3 7-3z" fill="#656A6C"/>
<path transform="translate(540,1133)" d="m0 0h1l1 18h7l-1-13 1-5h1l1 16 1 2 6 3v2h-28l-23-1v-2l7-2 1-2v3l9 1 1-3 4 2h7l2-1z" fill="#849082"/>
<path transform="translate(600,943)" d="m0 0h1l1 13 1 7 1 10-2 25v8l1 4v11l-3 5-5 3-2-1 4-4 1-3 1-23z" fill="#849082"/>
<path transform="translate(1260,1084)" d="m0 0h27v2l-7 3-2 9h-1l-1-8-4 1v4l-1 3-1 13-1 37h-1l-1-58-7-4z" fill="#838F81"/>
<path transform="translate(1356,895)" d="m0 0h7l9 4 4 8-2 1-1 4h-5l-1 3-3-3-2-6-6-5-2-1 1-4z" fill="#606469"/>
<path transform="translate(706,1119)" d="m0 0 3 4 1 28-6 2v-2h-2v-29z" fill="#606469"/>
<path transform="translate(498,1095)" d="m0 0 4 2 6 9 3 9 2 10-2 3h-2v-3h-2l-2-5-3-3-5-15v-6z" fill="#62676A"/>
<path transform="translate(1250,968)" d="m0 0h1v56l-3-3-2-11v-32l1-2h2z" fill="#849082"/>
<path transform="translate(1829,985)" d="m0 0h2v48l-2 1-4-3-3-8h3l1-5 1-24z" fill="#849082"/>
<path transform="translate(1697,1119)" d="m0 0 3 3v26l-2 2-5-1-2-7 1-13v-4h2v-3z" fill="#606469"/>
<path transform="translate(1393,1106)" d="m0 0h2l1 2v28l-2 4-4-1-1-1v-15l1-10z" fill="#606469"/>
<path transform="translate(749,1084)" d="m0 0h28l-8 8h-4l-1-3-4 1-1 43h-1l-1-42-3-3-5-2z" fill="#849082"/>
<path transform="translate(1423,1097)" d="m0 0 4 2-1 7-3 8-1 10h-3l-2-5-1-12 4-9z" fill="#61656A"/>
<path transform="translate(767,1135)" d="m0 0h1l1 16 6 2 1 3h-26l1-3 5-3 1-3 6 3 3-9z" fill="#849082"/>
<path transform="translate(574,1092)" d="m0 0 4 1 3 2v2h2l-1 10-3 5-5-1-1-2v-16z" fill="#606569"/>
<path transform="translate(1823,973)" d="m0 0h16l2 1-2 4-5 3h-2v2h-2l-1-5-5-1h-19v-2h-7v-1z" fill="#849082"/>
<path transform="translate(1671,895)" d="m0 0h13l1 4-4 5-4 2-9-6 2-4z" fill="#616569"/>
<path transform="translate(1561,1092)" d="m0 0h4l1 4 2 1v3h2l2 3 1 7-7-1-6-10v-6z" fill="#606469"/>
<path transform="translate(513,1139)" d="m0 0 5 2 5 5 2 5-1 2h-10l1-3-3-6z" fill="#61656A"/>
<path transform="translate(1518,900)" d="m0 0h7l2 1-1 6-5 4-5-1-3-3 1-5z" fill="#606469"/>
<path transform="translate(1086,1097)" d="m0 0 5 2 1 4h2v3l3 1 1 7h-5l-3-2-3-7-1-1z" fill="#606469"/>
<path transform="translate(1234,900)" d="m0 0h8l3 2-4 9-8-6-1-4z" fill="#606469"/>
<path transform="translate(1112,977)" d="m0 0h26l2 3h-29z" fill="#606469"/>
<path transform="translate(1455,895)" d="m0 0h6l3 5-4 3h-6l-4-4 2-3z" fill="#606469"/>
<path transform="translate(1586,900)" d="m0 0 5 3 5 5-1 4-7-2-4-5v-4z" fill="#606469"/>
<path transform="translate(1621,1111)" d="m0 0 2 1v5l2 5-3 4h-3l-2-3 1-8z" fill="#606469"/>
<path transform="translate(1742,983)" d="m0 0h1l3 17 4 12 1 4-3-2-3-6-3-5-1-11z" fill="#849082"/>
<path transform="translate(597,1088)" d="m0 0 3 1 2 1-2 12-2 4-2-2v-13z" fill="#63686B"/>
<path transform="translate(787,1103)" d="m0 0 1 4-2 6v12l2 8-2 3-3-14 1-12z" fill="#849082"/>
<path transform="translate(1745,930)" d="m0 0 1 2-3 20h-2l-1-7v-6l4-8z" fill="#838F81"/>
<path transform="translate(618,901)" d="m0 0h5v5l-2 3h-2l-1 2-1-1v-8z" fill="#606469"/>
<path transform="translate(1591,1140)" d="m0 0h5l2 2v5l-5-1-3-3z" fill="#606469"/>
<path transform="translate(1043,897)" d="m0 0 5 2-1 5-5-1-2-4z" fill="#606469"/>
<path transform="translate(1494,1125)" d="m0 0 1 2 3-1 1 2-2 1 1 4-1 3h-2l-2-5z" fill="#606469"/>
<path transform="translate(596,1092)" d="m0 0h1v6l3-1-1 8-2 1-1-2z" fill="#849082"/>
</svg>
