<?xml version="1.0" encoding="UTF-8"?>
<svg version="1.1" viewBox="0 0 2048 2044" width="614" height="613" xmlns="http://www.w3.org/2000/svg">
<path transform="translate(336,866)" d="m0 0h40l18 3 21 7 15 8 12 9 9 8 5 8-5-2-14-11-17-10-19-7-17-4-8-1h-17l-16 3-18 6-11 6-10 8-10 11-8 13-6 15-3 13v29l5 20 5 12 7 13 9 12 18 18 18 12 16 8 16 5 12 2h28l15-3 13-5 13-7 11-9 8-8h2l-1 5-11 20-13 18-11 13-9 11-10 10h-2v2l-11 9-14 11-21 13-17 8-19 7-13 3h-7v-26l-3-8-4-6-8-5-7-2h-15l-17 6h-14l-6-3-5-8-1-9 2-12-3-5-5-6 1-4 7-8-1-2-8-4-3-3 1-4 4-5v-4l-19-10-4-5 2-9 7-11 8-11 8-13 5-12 1-33 4-17 5-13 7-13 11-14 12-11 13-8 13-6 20-6z" fill="#728170"/>
<path transform="translate(536,898)" d="m0 0h44l3 3 14 37 17 44v3l3-3 12-34 10-27 6-17 3-5 2-1h43l1 1v134l-2 1h-35l-1-1v-69h-2l-3 11-19 57-3 2h-29l-3-4-8-23-12-36-3-7-1 69-1 1h-36l-1-1v-134z" fill="#72816F"/>
<path transform="translate(1562,898)" d="m0 0h36l5 5 7 10 14 22 24 36 2 1-1-2v-70l2-2h36l1 1v134l-2 1h-35l-5-5-16-23-10-16-17-25-4-4 1 6v58l-1 8-2 1h-35l-1-1v-134z" fill="#738170"/>
<path transform="translate(1357,898)" d="m0 0h36l5 5 15 24 27 41 4 4-1-11 1-62 1-1h36l1 1v134l-2 1h-36l-9-12-23-35-11-17-5-7-2-1v71l-3 1h-34l-2-5v-129z" fill="#738170"/>
<path transform="translate(1763,897)" d="m0 0h23l16 4 11 6 10 9 7 9 5 10 1 8-2 1h-36l-5-2v-2l-4-2-4-3-3-1h-16l-10 4-4 2-7 14-1 5v14l4 13 5 7 8 5 9 2h15l10-5 7-7 2-4h-35l-2-1v-26h71v35l-4 10-11 14-12 9-12 6-11 3-7 1h-14l-14-2-15-6-10-7-8-7-7-10-5-10-4-16v-22l3-12 5-12 7-11 8-8 10-7 11-5z" fill="#738170"/>
<path transform="translate(336,866)" d="m0 0h40l18 3 21 7 15 8 12 9 9 8 5 8-5-2-14-11-17-10-19-7-17-4-8-1h-17l-16 3-18 6-11 6-10 8-10 11-8 13-7 1-2 5-3 6h-2l-4 18v39l4 26 2 24 1 20v17l-1 17-5 16-6 11-10 10 10-2 17-6h18l9 3 9 7 6 10 2 6v10l-4 10-4 1-1-15-3-10-5-7-8-5-7-2h-15l-17 6h-14l-6-3-5-8-1-9 2-12-3-5-5-6 1-4 7-8-1-2-8-4-3-3 1-4 4-5v-4l-19-10-4-5 2-9 7-11 8-11 8-13 5-12 1-33 4-17 5-13 7-13 11-14 12-11 13-8 13-6 20-6z" fill="#6C7178"/>
<path transform="translate(1230,898)" d="m0 0h59l17 2 11 4 9 7 7 8 5 12 1 13-2 12-6 11-9 9-12 5 6 11 14 24 9 15v3h-41l-3-3-15-28-9-17-4-1v48l-1 1h-36l-2-6v-128zm38 32-1 1v27h24l6-3 3-7v-8l-4-6-5-3-7-1z" fill="#72816F"/>
<path transform="translate(1127,898)" d="m0 0h40l3 4 13 37 16 43 14 39 3 9-1 4h-38l-4-9-3-12h-44l-4 1-6 18-2 2h-37l-2-1 3-11 13-34 14-39 11-29 6-17zm19 45-4 8-10 29v3l24 1 4-2-8-25-4-13z" fill="#738270"/>
<path transform="translate(980,898)" d="m0 0h85l1 1v23l-1 7h-48v21h30l13 1v28l-1 1h-42v24h48l1 1v28l-1 1h-86l-1-14 1-121z" fill="#72816F"/>
<path transform="translate(362,897)" d="m0 0 5 1 6 4 7-1 3-2 8 1 2 2v9l8 16 10 5 3 4-1 7-5 6v5h7l5 2 3 7v21l-3 5-4 2 2 12 2 6 4-1 5-5 3-4v-9l-4-6-1-4 4-6 1-4-2-8-4-5 1-4 4-5 1-2v-7l-6-7-2-9-6-5-10-1-4-4 1-7 3-2h6l2 1 2 7 8 5v2l5-2h8l7 6 1 7-4 6-5 2-1 13 9-4 5-5 4-3 6 2 2 2-1 6-2 2v13l3 4-1 5-3 3h-5l-4-5 1-4 3-4v-10l-1-2-6 1-6 4-4 6v8l7 14 9 5 7 2v5l-4 2-15-10h-3v11l2 3-1 4-9 3-5 5-5 10 1 16 3 4-1 5-4 4-5-2-4-5 3-5 2-2v-11l-2-7-6-8-3-2-5 1-4 1-5-3-1-2v-6l4-4 5-1 5 5 2 6 9 2-4-17-1-2-18-1-3-2h-7l-2 5-3 4v13l4 8 8 5 9 2 1 1-1 7-4 1-10-8-4-2h-7l-5-4-1-3 4-7-1-14-3-4v-5l4-4 11 1 4-2 1-17 2-8 14-3 1-5-4-1-6-6v-6l3-5-6-14-2-5-5-2-4-2-9-1-1 4 3 9 8 5 1 2v7l-5 5-2 3 1 7 8 8-1 6-4 5-2 1h-6l-2-1h-6l-4 3h-2v9l-5 8-1 5 2 5 5 5-2 4-5 1-3-3v-6l-3-7-10-2-5-4-3-7 1-8 5-6 4-2h11l8 4 8-5 3-7 4-6-1-8-6-4-1-2v-8l4-5-1-7-2-5-7 1-5 3-2 5-6 4-6-1-7-1-6 3v6l6 3 14-1 5 3 2 8-4 6-3 2-7-1-4-2-10 5h-2l-2 6-1 2h-2l-1 3v12l3 4-2 6-7 1-3-3-1-3-8-4h-10l-4-4v-6l4-5-1-19 1-2h5l1 1v21l3 3 2 6 9 4h2l1-13-4-5 1-6 3-2 11-1 9-5 2-4-9-5-5 2-4 2h-7l-7-6-1-9 4-6 3-2h9l6 3 5-2 6-1 2-9 4-3h6l5 3 5-1 5-5z" fill="#768473"/>
<path transform="translate(886,898)" d="m0 0h36l1 1v106h31l11 1v27l-2 1h-78v-135z" fill="#72816F"/>
<path transform="translate(714,898)" d="m0 0h39v135l-2 1h-36l-1-1z" fill="#738270"/>
<path transform="translate(1502,898)" d="m0 0h39v136h-38l-1-2z" fill="#748371"/>
<path transform="translate(1099,1080)" d="m0 0h16l16 24 9 14 2 2v-39l4-1h12l1 1v66l-3 1h-10l-5-3-7-9-12-19-6-8-1 38-11 1-6-2v-65z" fill="#6D7279"/>
<path transform="translate(1526,1080)" d="m0 0h15l3 3 17 26 6 10 2 1v-39l1-1h15l1 66-3 2h-10l-5-2-8-11-12-19-6-8-1 39-1 1h-14l-1-1v-66z" fill="#6C7179"/>
<path transform="translate(770,951)" d="m0 0h87l1 4v27l-1 1h-88v-31z" fill="#72816F"/>
<path transform="translate(1424,1080)" d="m0 0h16l10 4 10 9 2 4v4h-15l-11-5h-11l-6 4-3 4-1 3v14l4 7 6 4 4 1h7l8-4 3-4v-3h-18l-2-5 1-7 29-1 7 1v14l-4 9-5 6-10 7-11 2-13-1-9-4-8-7-6-12-1-4v-12l3-10 4-6 8-7 8-4z" fill="#6E737A"/>
<path transform="translate(602,1080)" d="m0 0h31l10 3 8 7 2 4v15l-7 8-6 4 2 5 12 20-1 2h-11l-7-2-13-22-5-2v25h-15l-1-3v-63zm18 13-3 3v13l7 2 10-2 3-5-1-6-5-4z" fill="#6D7279"/>
<path transform="translate(954,1080)" d="m0 0h16l5 8 13 37 7 20-1 3h-13l-3-1-4-10-26-1-2 10-7 2-11-1 1-5 10-29 9-24 4-8zm6 20-7 20v3l15 1 2-1-3-12-4-10z" fill="#6E737A"/>
<path transform="translate(555,1080)" d="m0 0h13l3 2 9 23 10 29 4 13-1 1h-13l-3-1-4-10h-26l-3 10-2 1h-15l1-7 13-35 9-24zm5 20-5 10-3 10v3l3 1h13l1-3-6-20z" fill="#6D7279"/>
<path transform="translate(1627,1079)" d="m0 0 10 1 10 4 9 7 4 6 1 6h-18l-8-7-7-1-9 3-5 6-1 3v13l4 8 7 4h10l6-4 3-4h17l1 3-4 8-5 6-9 5-10 2h-9l-11-3-9-7-6-9-3-10v-12l5-13 4-5 10-6 7-3z" fill="#6E737A"/>
<path transform="translate(862,1079)" d="m0 0 11 2 10 5 8 8 3 6-1 3h-17l-7-6-9-2-8 3-5 6-1 3v13l4 8 6 4 6 1 6-2 8-6 1-1h15l1 5-6 9-6 5-10 4-13 1-12-3-8-6-7-9-4-13v-7l4-13 4-6 7-6 11-5z" fill="#6D7279"/>
<path transform="translate(1227,1080)" d="m0 0h42v13l-9 1h-15l-1 13h21l1 1v11l-1 1h-21v14h24l1 1v12l-2 1h-39l-1-1-1-15v-51z" fill="#6F757B"/>
<path transform="translate(1473,1080)" d="m0 0h40l1 1v12h-25v14h22v13h-22v14h24l1 1v12l-2 1h-37l-3-2v-65z" fill="#6E747A"/>
<path transform="translate(1671,1080)" d="m0 0h41v13l-24 1-1 13h22l1 5-1 8h-22v14h24l1 1v12l-1 1h-39l-1-1-1-66z" fill="#6C7178"/>
<path transform="translate(750,1080)" d="m0 0h43l1 5-1 8h-27v14h15l5 1v11l-1 1h-19v27l-2 1-14-1z" fill="#6D7279"/>
<path transform="translate(1171,1080)" d="m0 0h47l1 2v10l-1 1-16 1-1 53-2 1h-13l-2-1v-53l-18-1v-12z" fill="#6D7379"/>
<path transform="translate(661,1080)" d="m0 0h51l1 1v11l-1 1h-17v54l-7 1h-8l-2-1v-54h-17l-1-1v-11z" fill="#6C7278"/>
<path transform="translate(1325,1080)" d="m0 0h16l1 1v53h21l1 1v12l-2 1h-35l-2-2z" fill="#6F757B"/>
<path transform="translate(1280,1080)" d="m0 0h15l1 1v53h18l4 1v12l-7 1h-28l-4-1v-66z" fill="#6F747B"/>
<path transform="translate(1e3 1080)" d="m0 0h17v54l21 1 1 1v10l-5 2h-32l-2-1z" fill="#6F747B"/>
<path transform="translate(904,1080)" d="m0 0h16l1 1v28l-1 38h-15l-2-5v-61z" fill="#70767C"/>
<path transform="translate(802,1080)" d="m0 0h17v67h-17z" fill="#6B7077"/>
<path transform="translate(1069,1080)" d="m0 0h17v67h-17z" fill="#6B7177"/>
<path transform="translate(1372,1080)" d="m0 0h16v66l-1 1h-15l-1-1v-65z" fill="#6B7177"/>
<path transform="translate(721,1080)" d="m0 0h16l1 1v65l-1 1h-16z" fill="#6F747B"/>
<path transform="translate(415,877)" d="m0 0 6 2 15 9 10 9 5 4 5 8-5-2-14-11-17-10-5-2-1-6z" fill="#828F81"/>
</svg>
