<?xml version="1.0" encoding="UTF-8"?>
<svg id="Ebene_2" data-name="Ebene 2" xmlns="http://www.w3.org/2000/svg" viewBox="0 0 360.63 63.94">
  <defs>
    <style>
      .cls-1 {
        opacity: .5;
      }

      .cls-2 {
        fill: #1f3488;
      }
    </style>
  </defs>
  <g id="Ebene_1-2" data-name="Ebene 1">
    <g>
      <g>
        <path class="cls-2" d="M56.94,38.89V5.25h6.85v27.93h17.03v5.72h-23.88Z"/>
        <path class="cls-2" d="M84.51,38.89V4.97h25.15v5.74h-18.3v7.52h17.03v5.72h-17.03v9.23h18.95v5.72h-25.8Z"/>
        <path class="cls-2" d="M147.83,38.9h-7.45l-3.61-9.23h-12.22l-3.48,9.23h-7.27l13.21-33.92h7.24l13.58,33.92ZM134.57,23.96l-4.02-11.06-3.9,11.06h7.92Z"/>
        <path class="cls-2" d="M151.58,38.9V4.98h14.42c3.62,0,6.26.31,7.9.91,1.64.61,2.96,1.69,3.95,3.25.99,1.56,1.48,3.34,1.48,5.35,0,2.55-1.16,5.01-2.66,6.67s-5.09,1.75-5.09,1.75l10.5,15.99h-8.19l-8.14-12.75c-.88-1.37-2.39-2.2-4.02-2.2h-3.3v14.95h-6.85ZM158.43,18.24h5.07c3.29,0,5.34-.14,6.16-.42.82-.28,1.46-.76,1.92-1.44.46-.68.69-.89.69-1.91,0-1.14-.3-1.61-.91-2.31-.61-.7-1.47-1.15-2.58-1.33-.56-.08-2.22-.12-5-.12h-5.34v7.52Z"/>
        <path class="cls-2" d="M185.82,38.9V4.98h6.66l13.88,22.65V4.98h6.36v33.92h-6.87l-13.68-22.12v22.12h-6.36Z"/>
        <path class="cls-2" d="M217.34,38.9V4.98h6.85v33.92h-6.85Z"/>
        <path class="cls-2" d="M228.83,38.9V4.98h6.66l13.88,22.65V4.98h6.36v33.92h-6.87l-13.68-22.12v22.12h-6.36Z"/>
        <path class="cls-2" d="M276.24,25.84v-5.72h14.76v13.51c-1.43,1.39-3.51,2.61-6.24,3.67-2.72,1.06-5.48,1.59-8.27,1.59-3.55,0-6.64-.74-9.28-2.23-2.64-1.49-4.62-3.62-5.95-6.39-1.33-2.77-1.99-5.78-1.99-9.04,0-3.53.74-6.67,2.22-9.42,1.48-2.75,3.65-4.85,6.5-6.32,2.17-1.13,4.88-1.69,8.12-1.69,4.21,0,7.5.88,9.87,2.65,2.37,1.77,3.89,4.21,4.57,7.32l-6.8,1.27c-.48-1.67-1.38-2.98-2.7-3.95-1.32-.96-2.97-1.45-4.94-1.45-2.99,0-5.37.95-7.14,2.85-1.77,1.9-2.65,4.71-2.65,8.45,0,4.03.89,7.05,2.68,9.06,1.79,2.01,4.13,3.02,7.03,3.02,1.43,0,2.87-.28,4.32-.84,1.44-.56,2.68-1.25,3.71-2.05v-4.3h-7.84Z"/>
        <path class="cls-2" d="M26.24,5.64V0h6.39v5.64h-6.39ZM26.24,63.94V11.1h6.39v52.84h-6.39Z"/>
        <polygon class="cls-2" points="22.41 11.1 22.4 11.1 16.34 30.05 10.21 11.1 0 11.1 0 38.88 6.34 38.88 6.34 17.01 13.02 38.88 19.58 38.88 22.41 29.68 22.41 11.1"/>
        <rect class="cls-2" x="37.21" y="24.09" width="15.56" height="5.95"/>
      </g>
      <g class="cls-1">
        <path class="cls-2" d="M65.08,63.63h-3.71l-1.48-3.84h-6.76l-1.39,3.84h-3.62l6.58-16.9h3.61l6.77,16.9ZM58.8,56.94l-2.33-6.27-2.28,6.27h4.61Z"/>
        <path class="cls-2" d="M66.9,63.63v-16.9h7.18c1.81,0,3.12.15,3.94.46.82.3,1.47.84,1.97,1.62.49.78.74,1.66.74,2.66,0,1.27-.37,2.32-1.12,3.14-.75.83-1.86,1.35-3.34,1.56.74.43,1.35.9,1.83,1.42.48.52,1.13,1.43,1.94,2.74l2.06,3.3h-4.08l-2.47-3.68c-.88-1.31-1.48-2.14-1.8-2.49-.32-.34-.66-.58-1.03-.7s-.93-.19-1.72-.19h-.69v7.06h-3.41ZM70.32,53.87h2.52c1.64,0,2.66-.07,3.07-.21.41-.14.73-.38.96-.72.23-.34.35-.76.35-1.27,0-.57-.15-1.03-.46-1.38-.3-.35-.73-.57-1.29-.66-.28-.04-1.11-.06-2.49-.06h-2.66v4.29Z"/>
        <path class="cls-2" d="M87.75,63.63v-14.04h-5.01v-2.86h13.43v2.86h-5v14.04h-3.41Z"/>
        <path class="cls-2" d="M98.26,63.63v-16.9h3.41v16.9h-3.41Z"/>
        <path class="cls-2" d="M104.95,63.63v-16.9h11.59v2.86h-8.17v4h7.06v2.86h-7.06v7.18h-3.41Z"/>
        <path class="cls-2" d="M119.25,63.63v-16.9h3.41v16.9h-3.41Z"/>
        <path class="cls-2" d="M136.72,57.41l3.31,1.05c-.51,1.84-1.35,3.21-2.53,4.11-1.18.9-2.68,1.34-4.49,1.34-2.24,0-4.09-.77-5.53-2.3s-2.17-3.63-2.17-6.29c0-2.81.73-5,2.18-6.55,1.45-1.56,3.36-2.34,5.73-2.34,2.07,0,3.75.61,5.04,1.83.77.72,1.35,1.76,1.73,3.11l-3.38.81c-.2-.88-.62-1.57-1.25-2.08s-1.4-.76-2.31-.76c-1.25,0-2.27.45-3.05,1.35s-1.17,2.36-1.17,4.37c0,2.14.38,3.66,1.15,4.57.77.91,1.77,1.36,3,1.36.91,0,1.69-.29,2.34-.86.65-.58,1.12-1.48,1.41-2.72Z"/>
        <path class="cls-2" d="M142.86,63.63v-16.9h3.41v16.9h-3.41Z"/>
        <path class="cls-2" d="M164.76,63.63h-3.71l-1.48-3.84h-6.76l-1.39,3.84h-3.62l6.58-16.9h3.61l6.77,16.9ZM158.48,56.94l-2.33-6.27-2.28,6.27h4.61Z"/>
        <path class="cls-2" d="M166.66,63.63v-16.76h3.41v13.92h8.49v2.85h-11.9Z"/>
        <path class="cls-2" d="M190.26,63.63v-16.9h3.41v16.9h-3.41Z"/>
        <path class="cls-2" d="M196.96,63.63v-16.9h3.32l6.92,11.29v-11.29h3.17v16.9h-3.42l-6.81-11.02v11.02h-3.17Z"/>
        <path class="cls-2" d="M217.78,63.63v-14.04h-5.01v-2.86h13.43v2.86h-5v14.04h-3.41Z"/>
        <path class="cls-2" d="M228.4,63.63v-16.9h12.53v2.86h-9.12v3.75h8.49v2.85h-8.49v4.6h9.44v2.85h-12.86Z"/>
        <path class="cls-2" d="M244.24,63.63v-16.76h3.41v13.92h8.49v2.85h-11.9Z"/>
        <path class="cls-2" d="M258.67,63.63v-16.76h3.41v13.92h8.49v2.85h-11.9Z"/>
        <path class="cls-2" d="M272.89,63.63v-16.9h3.41v16.9h-3.41Z"/>
        <path class="cls-2" d="M287.42,57.41v-2.85h7.36v6.73c-.72.69-1.75,1.3-3.11,1.83-1.36.53-2.73.79-4.12.79-1.77,0-3.31-.37-4.62-1.11s-2.3-1.8-2.96-3.18c-.66-1.38-.99-2.88-.99-4.5,0-1.76.37-3.32,1.11-4.69.74-1.37,1.82-2.42,3.24-3.15,1.08-.56,2.43-.84,4.05-.84,2.1,0,3.74.44,4.92,1.32,1.18.88,1.94,2.1,2.28,3.65l-3.39.63c-.24-.83-.69-1.49-1.34-1.97-.66-.48-1.48-.72-2.46-.72-1.49,0-2.68.47-3.56,1.42-.88.94-1.32,2.35-1.32,4.21,0,2.01.45,3.51,1.34,4.51s2.06,1.5,3.5,1.5c.71,0,1.43-.14,2.15-.42.72-.28,1.34-.62,1.85-1.02v-2.14h-3.91Z"/>
        <path class="cls-2" d="M297.92,63.63v-16.9h12.53v2.86h-9.12v3.75h8.49v2.85h-8.49v4.6h9.44v2.85h-12.86Z"/>
        <path class="cls-2" d="M313.71,63.63v-16.9h3.32l6.92,11.29v-11.29h3.17v16.9h-3.42l-6.81-11.02v11.02h-3.17Z"/>
        <path class="cls-2" d="M341.54,57.41l3.31,1.05c-.51,1.84-1.35,3.21-2.53,4.11-1.18.9-2.68,1.34-4.49,1.34-2.24,0-4.09-.77-5.53-2.3s-2.17-3.63-2.17-6.29c0-2.81.73-5,2.18-6.55,1.45-1.56,3.36-2.34,5.73-2.34,2.07,0,3.75.61,5.04,1.83.77.72,1.35,1.76,1.73,3.11l-3.38.81c-.2-.88-.62-1.57-1.25-2.08s-1.4-.76-2.31-.76c-1.25,0-2.27.45-3.05,1.35s-1.17,2.36-1.17,4.37c0,2.14.38,3.66,1.15,4.57.77.91,1.77,1.36,3,1.36.91,0,1.69-.29,2.34-.86.65-.58,1.12-1.48,1.41-2.72Z"/>
        <path class="cls-2" d="M347.77,63.63v-16.9h12.53v2.86h-9.12v3.75h8.49v2.85h-8.49v4.6h9.44v2.85h-12.86Z"/>
      </g>
    </g>
  </g>
</svg>