<?xml version="1.0" encoding="UTF-8"?>
<svg id="Ebene_1" data-name="Ebene 1" xmlns="http://www.w3.org/2000/svg" viewBox="0 0 335.5 86.47">
  <defs>
    <style>
      .cls-1 {
        fill: #175586;
      }

      .cls-2 {
        opacity: .5;
      }
    </style>
  </defs>
  <g class="cls-2">
    <path class="cls-1" d="M85.75,68.82l3.32,1.05c-.51,1.85-1.36,3.23-2.54,4.13-1.19.9-2.69,1.35-4.51,1.35-2.25,0-4.11-.77-5.56-2.31s-2.18-3.64-2.18-6.31c0-2.82.73-5.02,2.19-6.58,1.46-1.56,3.38-2.34,5.75-2.34,2.08,0,3.76.61,5.06,1.84.77.72,1.35,1.77,1.74,3.12l-3.39.81c-.2-.88-.62-1.57-1.26-2.08s-1.41-.76-2.32-.76c-1.26,0-2.28.45-3.06,1.35-.78.9-1.17,2.37-1.17,4.39,0,2.14.39,3.67,1.16,4.58.77.91,1.77,1.37,3.01,1.37.91,0,1.69-.29,2.35-.87.66-.58,1.13-1.49,1.41-2.73Z"/>
    <path class="cls-1" d="M91.32,66.68c0-1.73.26-3.18.78-4.35.39-.86.91-1.64,1.58-2.33.67-.69,1.4-1.2,2.19-1.53,1.06-.45,2.28-.67,3.66-.67,2.5,0,4.5.77,6,2.33,1.5,1.55,2.25,3.71,2.25,6.47s-.74,4.88-2.23,6.43-3.48,2.32-5.97,2.32-4.53-.77-6.02-2.31-2.23-3.66-2.23-6.36ZM94.85,66.57c0,1.92.44,3.38,1.33,4.37.89.99,2.01,1.49,3.38,1.49s2.49-.49,3.36-1.48c.88-.98,1.31-2.46,1.31-4.43s-.43-3.39-1.28-4.35c-.85-.96-1.99-1.43-3.4-1.43s-2.55.48-3.41,1.45c-.86.97-1.3,2.43-1.3,4.38Z"/>
    <path class="cls-1" d="M110.4,75.06v-16.97h5.13l3.08,11.57,3.04-11.57h5.14v16.97h-3.18v-13.36l-3.37,13.36h-3.3l-3.36-13.36v13.36h-3.18Z"/>
    <path class="cls-1" d="M130.2,75.06v-16.97h5.5c2.08,0,3.44.09,4.07.26.97.25,1.79.81,2.44,1.66.66.85.98,1.95.98,3.3,0,1.04-.19,1.92-.57,2.63s-.86,1.27-1.44,1.67c-.58.41-1.17.67-1.78.8-.82.16-2,.24-3.55.24h-2.23v6.4h-3.43ZM133.62,60.96v4.82h1.88c1.35,0,2.25-.09,2.71-.27.45-.18.81-.45,1.07-.83.26-.38.39-.82.39-1.32,0-.62-.18-1.13-.54-1.53s-.82-.65-1.38-.75c-.41-.08-1.23-.12-2.47-.12h-1.66Z"/>
    <path class="cls-1" d="M145.99,58.09h3.43v9.19c0,1.46.04,2.4.13,2.84.15.69.5,1.25,1.05,1.67s1.31.63,2.26.63,1.71-.2,2.2-.6c.49-.4.79-.89.89-1.46.1-.58.15-1.54.15-2.88v-9.39h3.43v8.91c0,2.04-.09,3.48-.28,4.32-.19.84-.53,1.55-1.02,2.13s-1.16,1.04-2,1.38c-.83.34-1.92.52-3.26.52-1.62,0-2.85-.19-3.69-.56s-1.5-.86-1.99-1.46c-.49-.6-.81-1.23-.96-1.88-.22-.97-.34-2.41-.34-4.31v-9.05Z"/>
    <path class="cls-1" d="M166.95,75.06v-14.1h-5.03v-2.87h13.48v2.87h-5.02v14.1h-3.43Z"/>
    <path class="cls-1" d="M177.61,75.06v-16.97h12.58v2.87h-9.16v3.76h8.52v2.86h-8.52v4.62h9.48v2.86h-12.91Z"/>
    <path class="cls-1" d="M193.43,75.06v-16.97h7.21c1.81,0,3.13.15,3.95.46.82.31,1.48.85,1.97,1.63s.74,1.67.74,2.67c0,1.27-.37,2.32-1.12,3.15-.75.83-1.87,1.35-3.36,1.57.74.43,1.35.91,1.83,1.42.48.52,1.13,1.44,1.95,2.75l2.07,3.31h-4.1l-2.48-3.69c-.88-1.32-1.48-2.15-1.81-2.49-.32-.34-.67-.58-1.03-.71s-.94-.19-1.72-.19h-.69v7.08h-3.43ZM196.86,65.27h2.54c1.64,0,2.67-.07,3.08-.21.41-.14.73-.38.96-.72.23-.34.35-.76.35-1.27,0-.57-.15-1.03-.46-1.38s-.74-.57-1.29-.67c-.28-.04-1.11-.06-2.5-.06h-2.67v4.31Z"/>
    <path class="cls-1" d="M210.57,75.06v-16.97h3.33l6.95,11.33v-11.33h3.18v16.97h-3.44l-6.84-11.07v11.07h-3.18Z"/>
    <path class="cls-1" d="M227.66,75.06v-16.97h12.58v2.87h-9.16v3.76h8.52v2.86h-8.52v4.62h9.48v2.86h-12.91Z"/>
    <path class="cls-1" d="M247.29,75.06v-14.1h-5.03v-2.87h13.48v2.87h-5.02v14.1h-3.43Z"/>
    <path class="cls-1" d="M256.48,75.06v-3.09l8.91-11.01h-7.91v-2.87h12.42v2.66l-9.3,11.45h9.65v2.86h-13.79Z"/>
    <path class="cls-1" d="M272.43,75.06v-16.97h12.58v2.87h-9.16v3.76h8.52v2.86h-8.52v4.62h9.48v2.86h-12.91Z"/>
  </g>
  <g>
    <path class="cls-1" d="M79.19,50.01V16.37h6.85v27.93h17.03v5.72h-23.88Z"/>
    <path class="cls-1" d="M106.76,50.01V16.09h25.15v5.74h-18.3v7.52h17.03v5.72h-17.03v9.23h18.95v5.72h-25.8Z"/>
    <path class="cls-1" d="M170.08,50.02h-7.45l-3.61-9.23h-12.22l-3.48,9.23h-7.27l13.21-33.92h7.24l13.58,33.92ZM156.82,35.07l-4.02-11.06-3.9,11.06h7.92Z"/>
    <path class="cls-1" d="M173.83,50.02V16.1h14.42c3.62,0,6.26.31,7.9.91,1.64.61,2.96,1.69,3.95,3.25.99,1.56,1.48,3.34,1.48,5.35,0,2.55-1.16,5.01-2.66,6.67s-5.09,1.75-5.09,1.75l10.5,15.99h-8.19l-8.14-12.75c-.88-1.37-2.39-2.2-4.02-2.2h-3.3v14.95h-6.85ZM180.68,29.36h5.07c3.29,0,5.34-.14,6.16-.42.82-.28,1.46-.76,1.92-1.44.46-.68.69-.89.69-1.91,0-1.14-.3-1.61-.91-2.31-.61-.7-1.47-1.15-2.58-1.33-.56-.08-2.22-.12-5-.12h-5.34v7.52Z"/>
    <path class="cls-1" d="M208.07,50.02V16.1h6.66l13.88,22.65v-22.65h6.36v33.92h-6.87l-13.68-22.12v22.12h-6.36Z"/>
    <path class="cls-1" d="M239.59,50.02V16.1h6.85v33.92h-6.85Z"/>
    <path class="cls-1" d="M251.08,50.02V16.1h6.66l13.88,22.65v-22.65h6.36v33.92h-6.87l-13.68-22.12v22.12h-6.36Z"/>
    <path class="cls-1" d="M298.49,36.96v-5.72h14.76v13.51c-1.43,1.39-3.51,2.61-6.24,3.67-2.72,1.06-5.48,1.59-8.27,1.59-3.55,0-6.64-.74-9.28-2.23-2.64-1.49-4.62-3.62-5.95-6.39-1.33-2.77-1.99-5.78-1.99-9.04,0-3.53.74-6.67,2.22-9.42,1.48-2.75,3.65-4.85,6.5-6.32,2.17-1.13,4.88-1.69,8.12-1.69,4.21,0,7.5.88,9.87,2.65,2.37,1.77,3.89,4.21,4.57,7.32l-6.8,1.27c-.48-1.67-1.38-2.98-2.7-3.95-1.32-.96-2.97-1.45-4.94-1.45-2.99,0-5.37.95-7.14,2.85-1.77,1.9-2.65,4.71-2.65,8.45,0,4.03.89,7.05,2.68,9.06,1.79,2.01,4.13,3.02,7.03,3.02,1.43,0,2.87-.28,4.32-.84,1.44-.56,2.68-1.25,3.71-2.05v-4.3h-7.84Z"/>
    <path class="cls-1" d="M48.49,16.76v-5.64h6.39v5.64h-6.39ZM48.49,75.06V22.22h6.39v52.84h-6.39Z"/>
    <polygon class="cls-1" points="44.66 22.22 44.65 22.22 38.59 41.17 32.46 22.22 22.25 22.22 22.25 50 28.59 50 28.59 28.13 35.27 50 41.84 50 44.66 40.8 44.66 22.22"/>
    <rect class="cls-1" x="59.46" y="35.21" width="15.56" height="5.95"/>
  </g>
</svg>