<?xml version="1.0" encoding="UTF-8"?>
<svg id="Ebene_2" xmlns="http://www.w3.org/2000/svg" viewBox="0 0 121.85 88.31">
  <defs>
    <style>
      .cls-1 {
        fill: #1f3388;
      }
    </style>
  </defs>
  <g id="Ebene_1-2" data-name="Ebene_1">
    <g>
      <g id="Ebene_1-2">
        <path class="cls-1" d="M121.22,29.8L88.23.47c-.54-.48-1.31-.6-1.97-.3-.66.3-1.08.95-1.08,1.67v12.83h-5.5c-24.85,0-45.83,17.64-45.83,38.51,0,13.31,9.45,27.55,22.99,34.62.27.14.56.21.85.21h.04c1.02-.07,1.87-.81,1.87-1.83,0-.62-.3-1.17-.77-1.5-3.24-3.84-6.63-10.06-6.63-15,0-13.77,15.85-22,31.17-22,.43,0,.87-.01,1.3-.03h.53s0,12.86,0,12.86c0,.72.43,1.38,1.08,1.67.66.3,1.43.18,1.97-.3l33-29.33c.39-.34.61-.85.61-1.37s-.22-1.02-.61-1.37h0Z"/>
      </g>
      <g id="Ebene_1-2-2" data-name="Ebene_1-2">
        <path class="cls-1" d="M.21,68.66C.07,68.78,0,68.95,0,69.12c0,.18.07.35.21.46l11.13,9.9c.18.16.44.2.66.1.22-.1.37-.32.37-.56v-4.34h.18c.14,0,.29.01.44.01,5.17,0,10.52,2.78,10.52,7.42,0,1.67-1.14,3.77-2.24,5.06-.16.11-.26.3-.26.51,0,.34.29.6.63.62h.01c.1,0,.2-.02.29-.07,4.57-2.39,7.76-7.19,7.76-11.68,0-7.04-7.08-12.99-15.47-12.99h-1.86v-4.33c0-.24-.14-.46-.37-.56-.22-.1-.48-.06-.66.1L.21,68.67h0Z"/>
      </g>
    </g>
  </g>
</svg>