<?xml version="1.0" encoding="UTF-8"?>
<svg id="Ebene_2" xmlns="http://www.w3.org/2000/svg" viewBox="0 0 127.56 127.56">
  <defs>
    <style>
      .cls-1 {
        fill: #1f3388;
      }
    </style>
  </defs>
  <g id="Ebene_1-2" data-name="Ebene_1">
    <path class="cls-1" d="M126.66,43.19L78.83.67c-.78-.7-1.9-.87-2.85-.44-.96.43-1.57,1.38-1.57,2.42v18.6h-7.97C30.42,21.26,0,46.82,0,77.07c0,19.3,13.7,39.94,33.32,50.19.39.2.81.3,1.23.3h.06c1.48-.1,2.71-1.18,2.71-2.66,0-.9-.44-1.69-1.12-2.17-4.7-5.57-9.61-14.58-9.61-21.75,0-19.96,22.97-31.89,45.18-31.89.63,0,1.26-.02,1.88-.04l.77-.02v18.66c0,1.05.62,2,1.57,2.42.95.43,2.07.26,2.85-.44l47.83-42.52c.57-.5.89-1.23.89-1.99s-.32-1.48-.89-1.99Z"/>
  </g>
</svg>