<?xml version="1.0" encoding="UTF-8"?>
<svg id="Ebene_2" xmlns="http://www.w3.org/2000/svg" viewBox="0 0 121.93 88.28">
  <defs>
    <style>
      .cls-1 {
        fill: #1f3388;
      }

      .cls-2 {
        isolation: isolate;
      }

      .cls-3 {
        fill: #fff;
      }

      .cls-4 {
        fill: #1f3488;
      }
    </style>
  </defs>
  <g id="Ebene_1-2" data-name="Ebene_1">
    <g>
      <g id="Ebene_1-2">
        <g>
          <rect class="cls-4" y="76.36" width="35.74" height="11.91" rx="2.8" ry="2.8"/>
          <g class="cls-2">
            <g class="cls-2">
              <path class="cls-3" d="M1.8,86.03v-7.24h3.08c.77,0,1.34.07,1.69.2s.63.36.84.69.32.71.32,1.14c0,.54-.16.99-.48,1.35s-.8.58-1.43.67c.32.18.58.39.78.61s.48.61.83,1.18l.88,1.41h-1.75l-1.06-1.58c-.38-.56-.63-.92-.77-1.06s-.28-.25-.44-.3-.4-.08-.74-.08h-.3v3.02h-1.46ZM3.26,81.85h1.08c.7,0,1.14-.03,1.31-.09s.31-.16.41-.31.15-.33.15-.54c0-.24-.07-.44-.2-.59s-.31-.24-.55-.28c-.12-.02-.47-.02-1.07-.02h-1.14v1.84Z"/>
              <path class="cls-3" d="M9.1,86.03v-7.24h5.37v1.22h-3.91v1.61h3.64v1.22h-3.64v1.97h4.05v1.22h-5.51Z"/>
              <path class="cls-3" d="M15.48,83.67l1.42-.14c.09.48.26.83.52,1.05s.61.34,1.06.34c.47,0,.83-.1,1.06-.3s.36-.43.36-.7c0-.17-.05-.32-.15-.44s-.28-.22-.53-.31c-.17-.06-.56-.16-1.17-.32-.78-.19-1.33-.43-1.65-.72-.44-.4-.67-.88-.67-1.46,0-.37.1-.71.31-1.03s.51-.57.9-.73.87-.25,1.42-.25c.91,0,1.59.2,2.05.6s.7.93.72,1.6l-1.46.06c-.06-.37-.2-.64-.4-.8s-.51-.24-.93-.24-.76.09-1,.26c-.15.11-.23.26-.23.45,0,.17.07.32.22.44.18.15.63.32,1.34.48s1.24.34,1.58.52.61.42.8.74.29.7.29,1.15c0,.41-.12.8-.35,1.17s-.56.63-.98.81-.95.26-1.58.26c-.92,0-1.62-.21-2.11-.63s-.78-1.04-.88-1.85Z"/>
              <path class="cls-3" d="M22.59,86.03v-7.24h5.37v1.22h-3.91v1.61h3.64v1.22h-3.64v1.97h4.05v1.22h-5.51Z"/>
              <path class="cls-3" d="M30.97,86.03v-6.02h-2.15v-1.22h5.75v1.22h-2.14v6.02h-1.46Z"/>
            </g>
          </g>
        </g>
      </g>
      <g id="Ebene_1-2-2" data-name="Ebene_1-2">
        <path class="cls-1" d="M121.31,29.8L88.32.47c-.54-.48-1.31-.6-1.97-.3-.66.3-1.08.95-1.08,1.67v12.83h-5.5c-24.85,0-45.83,17.64-45.83,38.51,0,13.31,9.45,27.55,22.99,34.62.27.14.56.21.85.21h.04c1.02-.07,1.87-.81,1.87-1.83,0-.62-.3-1.17-.77-1.5-3.24-3.84-6.63-10.06-6.63-15,0-13.77,15.85-22,31.17-22,.43,0,.87-.01,1.3-.03h.53s0,12.86,0,12.86c0,.72.43,1.38,1.08,1.67.66.3,1.43.18,1.97-.3l33-29.33c.39-.34.61-.85.61-1.37s-.22-1.02-.61-1.37h0Z"/>
      </g>
    </g>
  </g>
</svg>