<?xml version="1.0" encoding="UTF-8" standalone="no"?><!DOCTYPE svg PUBLIC "-//W3C//DTD SVG 1.1//EN" "http://www.w3.org/Graphics/SVG/1.1/DTD/svg11.dtd"><svg width="100%" height="100%" viewBox="0 0 16 16" version="1.1" xmlns="http://www.w3.org/2000/svg" xmlns:xlink="http://www.w3.org/1999/xlink" xml:space="preserve" xmlns:serif="http://www.serif.com/" style="fill-rule:evenodd;clip-rule:evenodd;stroke-linejoin:round;stroke-miterlimit:2;"><clipPath id="_clip1"><rect id="noun-arrow-3134192.svg" x="1.673" y="1.999" width="12.653" height="12.003"/></clipPath><g clip-path="url(#_clip1)"><clipPath id="_clip2"><rect x="1.673" y="-1.397" width="12.653" height="15.817"/></clipPath><g clip-path="url(#_clip2)"><path d="M1.972,8.84l4.165,4.165c0.193,0.203 0.46,0.318 0.74,0.318c0.559,-0 1.02,-0.461 1.02,-1.02c-0,-0.279 -0.115,-0.546 -0.317,-0.739l-2.462,-2.458l8.189,-0c0.559,-0 1.02,-0.461 1.02,-1.02c-0,-0.56 -0.461,-1.02 -1.02,-1.02l-8.167,-0l2.44,-2.443c0.18,-0.19 0.281,-0.442 0.281,-0.703c-0,-0.56 -0.461,-1.02 -1.02,-1.02c-0.262,0 -0.514,0.101 -0.704,0.281l-4.165,4.166c-0.192,0.191 -0.3,0.45 -0.299,0.721c-0,0.008 -0,0.017 0,0.025c-0,0.009 -0,0.017 0,0.026c0,0.27 0.108,0.53 0.299,0.721Z" style="fill-rule:nonzero;"/><g transform="matrix(-1,-1.22465e-16,1.22465e-16,-1,28.6533,-0.262577)"><text x="14.327px" y="-0.131px" style="font-family:'Helvetica-Bold', 'Helvetica';font-weight:700;font-size:0.633px;">Created by Rainbow Designs</text></g></g></g></svg>