<?xml version="1.0" encoding="UTF-8" standalone="no"?><!DOCTYPE svg PUBLIC "-//W3C//DTD SVG 1.1//EN" "http://www.w3.org/Graphics/SVG/1.1/DTD/svg11.dtd"><svg width="100%" height="100%" viewBox="0 0 16 16" version="1.1" xmlns="http://www.w3.org/2000/svg" xmlns:xlink="http://www.w3.org/1999/xlink" xml:space="preserve" xmlns:serif="http://www.serif.com/" style="fill-rule:evenodd;clip-rule:evenodd;stroke-linejoin:round;stroke-miterlimit:2;"><path d="M3.693,4.54c-0.115,0 -0.224,-0.045 -0.305,-0.126c-0.081,-0.081 -0.126,-0.19 -0.126,-0.305l-0,-1.723c-0,-0.114 0.045,-0.223 0.126,-0.304c0.081,-0.081 0.19,-0.126 0.305,-0.126c0.114,-0 0.223,0.045 0.304,0.126c0.081,0.081 0.126,0.19 0.126,0.304l0,1.723c0,0.115 -0.045,0.224 -0.126,0.305c-0.081,0.081 -0.19,0.126 -0.304,0.126Z" style="fill-rule:nonzero;"/><path d="M3.693,14.017c-0.115,-0 -0.224,-0.046 -0.305,-0.127c-0.081,-0.08 -0.126,-0.19 -0.126,-0.304l-0,-6.461c-0,-0.115 0.045,-0.224 0.126,-0.305c0.081,-0.081 0.19,-0.126 0.305,-0.126c0.114,-0 0.223,0.045 0.304,0.126c0.081,0.081 0.126,0.19 0.126,0.305l0,6.461c0,0.114 -0.045,0.224 -0.126,0.304c-0.081,0.081 -0.19,0.127 -0.304,0.127Z" style="fill-rule:nonzero;"/><path d="M8,14.017c-0.114,-0 -0.224,-0.046 -0.305,-0.127c-0.08,-0.08 -0.126,-0.19 -0.126,-0.304l0,-1.723c0,-0.114 0.046,-0.224 0.126,-0.305c0.081,-0.08 0.191,-0.126 0.305,-0.126c0.114,0 0.224,0.046 0.305,0.126c0.08,0.081 0.126,0.191 0.126,0.305l-0,1.723c-0,0.114 -0.046,0.224 -0.126,0.304c-0.081,0.081 -0.191,0.127 -0.305,0.127Z" style="fill-rule:nonzero;"/><path d="M8,9.709c-0.114,0 -0.224,-0.045 -0.305,-0.126c-0.08,-0.081 -0.126,-0.19 -0.126,-0.305l0,-6.892c0,-0.114 0.046,-0.223 0.126,-0.304c0.081,-0.081 0.191,-0.126 0.305,-0.126c0.114,-0 0.224,0.045 0.305,0.126c0.08,0.081 0.126,0.19 0.126,0.304l-0,6.892c-0,0.115 -0.046,0.224 -0.126,0.305c-0.081,0.081 -0.191,0.126 -0.305,0.126Z" style="fill-rule:nonzero;"/><path d="M12.307,7.125c-0.114,-0 -0.223,-0.046 -0.304,-0.126c-0.081,-0.081 -0.126,-0.191 -0.126,-0.305l-0,-4.308c-0,-0.114 0.045,-0.223 0.126,-0.304c0.081,-0.081 0.19,-0.126 0.304,-0.126c0.115,-0 0.224,0.045 0.305,0.126c0.081,0.081 0.126,0.19 0.126,0.304l0,4.308c0,0.114 -0.045,0.224 -0.126,0.305c-0.081,0.08 -0.19,0.126 -0.305,0.126Z" style="fill-rule:nonzero;"/><path d="M12.307,14.017c-0.114,-0 -0.223,-0.046 -0.304,-0.127c-0.081,-0.08 -0.126,-0.19 -0.126,-0.304l-0,-4.308c-0,-0.114 0.045,-0.223 0.126,-0.304c0.081,-0.081 0.19,-0.126 0.304,-0.126c0.115,-0 0.224,0.045 0.305,0.126c0.081,0.081 0.126,0.19 0.126,0.304l0,4.308c0,0.114 -0.045,0.224 -0.126,0.304c-0.081,0.081 -0.19,0.127 -0.305,0.127Z" style="fill-rule:nonzero;"/><path d="M3.693,7.125c-0.341,-0 -0.674,-0.101 -0.958,-0.291c-0.283,-0.189 -0.504,-0.458 -0.634,-0.773c-0.131,-0.315 -0.165,-0.661 -0.098,-0.995c0.066,-0.335 0.23,-0.642 0.471,-0.883c0.241,-0.241 0.548,-0.405 0.882,-0.471c0.335,-0.067 0.681,-0.033 0.996,0.098c0.315,0.13 0.584,0.351 0.773,0.634c0.189,0.284 0.291,0.617 0.291,0.958c-0,0.457 -0.182,0.895 -0.505,1.218c-0.323,0.323 -0.762,0.505 -1.218,0.505Zm-0,-2.585c-0.171,0 -0.337,0.051 -0.479,0.145c-0.142,0.095 -0.252,0.23 -0.317,0.387c-0.066,0.157 -0.083,0.331 -0.049,0.498c0.033,0.167 0.115,0.32 0.235,0.441c0.121,0.12 0.274,0.202 0.441,0.236c0.168,0.033 0.341,0.016 0.498,-0.049c0.158,-0.066 0.292,-0.176 0.387,-0.318c0.094,-0.141 0.145,-0.308 0.145,-0.478c0,-0.229 -0.091,-0.448 -0.252,-0.609c-0.162,-0.162 -0.381,-0.253 -0.609,-0.253Z" style="fill-rule:nonzero;"/><path d="M8,12.294c-0.341,-0 -0.674,-0.101 -0.957,-0.291c-0.284,-0.189 -0.504,-0.458 -0.635,-0.773c-0.13,-0.315 -0.164,-0.661 -0.098,-0.995c0.067,-0.335 0.231,-0.642 0.472,-0.883c0.241,-0.241 0.548,-0.405 0.882,-0.471c0.334,-0.067 0.681,-0.033 0.995,0.098c0.315,0.13 0.584,0.351 0.774,0.634c0.189,0.284 0.29,0.617 0.29,0.958c-0,0.457 -0.182,0.895 -0.505,1.218c-0.323,0.323 -0.761,0.505 -1.218,0.505Zm0,-2.585c-0.17,0 -0.337,0.051 -0.479,0.145c-0.141,0.095 -0.252,0.23 -0.317,0.387c-0.065,0.157 -0.082,0.331 -0.049,0.498c0.033,0.167 0.115,0.32 0.236,0.441c0.12,0.12 0.274,0.202 0.441,0.236c0.167,0.033 0.34,0.016 0.498,-0.049c0.157,-0.066 0.292,-0.176 0.386,-0.318c0.095,-0.141 0.145,-0.308 0.145,-0.478c0,-0.229 -0.09,-0.448 -0.252,-0.609c-0.161,-0.162 -0.381,-0.253 -0.609,-0.253Z" style="fill-rule:nonzero;"/><path d="M12.307,9.709c-0.34,0 -0.673,-0.101 -0.957,-0.29c-0.283,-0.19 -0.504,-0.459 -0.634,-0.773c-0.131,-0.315 -0.165,-0.662 -0.098,-0.996c0.066,-0.334 0.23,-0.641 0.471,-0.882c0.241,-0.241 0.548,-0.405 0.882,-0.472c0.335,-0.066 0.681,-0.032 0.996,0.098c0.315,0.131 0.584,0.352 0.773,0.635c0.189,0.283 0.29,0.616 0.29,0.957c0,0.457 -0.181,0.895 -0.504,1.219c-0.323,0.323 -0.762,0.504 -1.219,0.504Zm0,-2.584c-0.17,-0 -0.336,0.05 -0.478,0.145c-0.142,0.095 -0.252,0.229 -0.317,0.387c-0.066,0.157 -0.083,0.33 -0.049,0.497c0.033,0.167 0.115,0.321 0.235,0.441c0.121,0.121 0.274,0.203 0.441,0.236c0.168,0.033 0.341,0.016 0.498,-0.049c0.158,-0.065 0.292,-0.176 0.387,-0.317c0.094,-0.142 0.145,-0.308 0.145,-0.479c-0,-0.228 -0.091,-0.447 -0.252,-0.609c-0.162,-0.162 -0.381,-0.252 -0.61,-0.252Z" style="fill-rule:nonzero;"/></svg>