<?xml version="1.0" encoding="UTF-8" standalone="no"?><!DOCTYPE svg PUBLIC "-//W3C//DTD SVG 1.1//EN" "http://www.w3.org/Graphics/SVG/1.1/DTD/svg11.dtd"><svg width="100%" height="100%" viewBox="0 0 16 16" version="1.1" xmlns="http://www.w3.org/2000/svg" xmlns:xlink="http://www.w3.org/1999/xlink" xml:space="preserve" xmlns:serif="http://www.serif.com/" style="fill-rule:evenodd;clip-rule:evenodd;stroke-linejoin:round;stroke-miterlimit:2;"><clipPath id="_clip1"><rect id="noun-clock-1495285.svg" x="1.772" y="1.765" width="12.457" height="12.471"/></clipPath><g clip-path="url(#_clip1)"><path d="M8,14.222c-3.417,-0 -6.228,-2.812 -6.228,-6.229c-0,-3.417 2.811,-6.228 6.228,-6.228c3.417,-0 6.228,2.811 6.228,6.228c0,3.417 -2.811,6.229 -6.228,6.229Zm0,-11.419c-2.847,-0 -5.19,2.343 -5.19,5.19c-0,2.847 2.343,5.191 5.19,5.191c2.847,-0 5.19,-2.344 5.19,-5.191c0,-2.847 -2.343,-5.19 -5.19,-5.19Zm1.157,7.111l-1.52,-1.526c-0.107,-0.105 -0.164,-0.252 -0.156,-0.402l-0,-2.588c-0,-0.285 0.234,-0.519 0.519,-0.519c0.285,-0 0.519,0.234 0.519,0.519l0,2.352l1.401,1.401c0.101,0.101 0.158,0.238 0.158,0.381c0,0.296 -0.243,0.54 -0.539,0.54c-0.143,-0 -0.28,-0.057 -0.382,-0.158Z" style="fill:#101010;"/></g></svg>