<?xml version="1.0" encoding="UTF-8" standalone="no"?><!DOCTYPE svg PUBLIC "-//W3C//DTD SVG 1.1//EN" "http://www.w3.org/Graphics/SVG/1.1/DTD/svg11.dtd"><svg width="100%" height="100%" viewBox="0 0 16 16" version="1.1" xmlns="http://www.w3.org/2000/svg" xmlns:xlink="http://www.w3.org/1999/xlink" xml:space="preserve" xmlns:serif="http://www.serif.com/" style="fill-rule:evenodd;clip-rule:evenodd;stroke-linejoin:round;stroke-miterlimit:2;"><path d="M8.911,1.263l-5.788,1.097c-0.231,0.043 -0.398,0.245 -0.398,0.479l0,10.301c0,0.235 0.167,0.436 0.398,0.48l5.789,1.097c0.3,0.056 0.579,-0.174 0.579,-0.48l-0.001,-12.494c0,-0.307 -0.278,-0.537 -0.579,-0.48l0,-0Zm-0.852,7.175c-0,0.266 -0.215,0.481 -0.481,0.481c-0.266,-0 -0.481,-0.215 -0.481,-0.481l-0,-0.896c-0,-0.266 0.215,-0.481 0.481,-0.481c0.266,0 0.481,0.215 0.481,0.481l-0,0.896Z" style="fill-rule:nonzero;"/><path d="M12.787,2.414l-2.334,-0l-0,11.152l2.334,-0c0.27,-0 0.486,-0.217 0.486,-0.486l-0,-10.18c-0,-0.27 -0.216,-0.486 -0.486,-0.486l0,-0Z" style="fill-rule:nonzero;"/></svg>