<?xml version="1.0" encoding="UTF-8" standalone="no"?><!DOCTYPE svg PUBLIC "-//W3C//DTD SVG 1.1//EN" "http://www.w3.org/Graphics/SVG/1.1/DTD/svg11.dtd"><svg width="100%" height="100%" viewBox="0 0 16 16" version="1.1" xmlns="http://www.w3.org/2000/svg" xmlns:xlink="http://www.w3.org/1999/xlink" xml:space="preserve" xmlns:serif="http://www.serif.com/" style="fill-rule:evenodd;clip-rule:evenodd;stroke-linejoin:round;stroke-miterlimit:2;"><path d="M6.533,2.656c-0.829,2.217 -0.529,4.238 1.231,5.878c1.621,1.511 3.538,1.722 5.578,0.933c-0.312,1.822 -2.131,4.22 -5.154,4.404c-1.92,0.131 -3.776,-0.72 -4.932,-2.259c-1.155,-1.54 -1.453,-3.56 -0.792,-5.368c0.662,-1.807 2.192,-3.157 4.069,-3.588l-0,0Zm2.001,0.422l0.001,-0c0.851,-0 1.54,-0.689 1.54,-1.54c0,0.408 0.163,0.8 0.451,1.089c0.289,0.289 0.682,0.451 1.09,0.451c-0.851,-0 -1.541,0.69 -1.541,1.541c0,-0.409 -0.162,-0.801 -0.451,-1.09c-0.289,-0.289 -0.681,-0.451 -1.089,-0.451l-0.001,-0Zm2.862,2.84c0.851,-0 1.541,0.689 1.541,1.54c0,-0.851 0.69,-1.54 1.541,-1.54c-0.409,-0 -0.801,-0.162 -1.09,-0.451c-0.289,-0.289 -0.451,-0.682 -0.451,-1.09c0,0.851 -0.69,1.541 -1.541,1.541Z" style="fill-rule:nonzero;"/></svg>