<?xml version="1.0" encoding="UTF-8" standalone="no"?><!DOCTYPE svg PUBLIC "-//W3C//DTD SVG 1.1//EN" "http://www.w3.org/Graphics/SVG/1.1/DTD/svg11.dtd"><svg width="100%" height="100%" viewBox="0 0 16 16" version="1.1" xmlns="http://www.w3.org/2000/svg" xmlns:xlink="http://www.w3.org/1999/xlink" xml:space="preserve" xmlns:serif="http://www.serif.com/" style="fill-rule:evenodd;clip-rule:evenodd;stroke-linejoin:round;stroke-miterlimit:2;"><clipPath id="_clip1"><rect id="noun-sound-815177.svg" x="0.998" y="2.704" width="14.005" height="10.593"/></clipPath><g clip-path="url(#_clip1)"><path d="M7.748,3.157l-3.224,1.983l-2.829,-0c-0.243,-0 -0.441,0.197 -0.441,0.44l0,4.21c0,0.243 0.198,0.44 0.441,0.44l2.829,0l3.224,1.983c0.203,0.124 0.441,0.027 0.441,-0.441l-0,-8.174c-0,-0.473 -0.225,-0.578 -0.441,-0.441Z" style="fill-rule:nonzero;"/><path d="M10.048,9.542c0.899,-0.883 0.899,-2.649 0,-3.626c-0.588,-0.619 -1.162,0.078 -0.867,0.403c0.774,0.837 0.774,2.046 -0,2.836c-0.326,0.34 0.279,1.038 0.867,0.387Zm3.099,2.371c2.278,-2.324 2.278,-6.198 0,-8.615c-0.527,-0.542 -1.177,0.124 -0.666,0.837c1.844,2.014 1.813,4.989 -0,6.972c-0.852,0.79 -0,1.658 0.666,0.806Zm-1.518,-1.1c1.596,-1.953 1.596,-4.215 0.015,-6.043c-0.743,-0.852 -1.41,0.046 -0.743,0.697c1.208,1.271 1.208,3.3 -0,4.586c-0.651,0.698 -0.016,1.488 0.728,0.76Z" style="fill-rule:nonzero;"/><text x="0.998px" y="14.538px" style="font-family:'Helvetica-Bold', 'Helvetica';font-weight:700;font-size:0.184px;">Created by corpus delicti</text><text x="0.998px" y="14.722px" style="font-family:'Helvetica-Bold', 'Helvetica';font-weight:700;font-size:0.184px;">from the Noun Project</text></g></svg>