<?xml version="1.0" encoding="UTF-8" standalone="no"?><!DOCTYPE svg PUBLIC "-//W3C//DTD SVG 1.1//EN" "http://www.w3.org/Graphics/SVG/1.1/DTD/svg11.dtd"><svg width="100%" height="100%" viewBox="0 0 16 16" version="1.1" xmlns="http://www.w3.org/2000/svg" xmlns:xlink="http://www.w3.org/1999/xlink" xml:space="preserve" xmlns:serif="http://www.serif.com/" style="fill-rule:evenodd;clip-rule:evenodd;stroke-linejoin:round;stroke-miterlimit:2;"><path d="M8.88,3.456c0.698,0 1.264,-0.568 1.264,-1.264c-0,-0.697 -0.568,-1.264 -1.264,-1.264c-0.697,-0 -1.265,0.567 -1.265,1.264c0,0.696 0.568,1.264 1.265,1.264Z" style="fill-rule:nonzero;"/><path d="M12.391,7.954c-0.067,-0.164 -0.192,-0.291 -0.355,-0.361l-1.461,-0.622l-1.316,-2.457c-0.013,-0.023 -0.026,-0.046 -0.043,-0.07l0,-0.003c-0.157,-0.243 -0.408,-0.425 -0.712,-0.484c-0.295,-0.057 -0.591,0.009 -0.835,0.183l-2.412,1.428c-0.13,0.079 -0.231,0.199 -0.283,0.342l-0.789,2.159c-0.06,0.166 -0.054,0.345 0.021,0.505c0.075,0.159 0.207,0.281 0.373,0.342c0.073,0.026 0.149,0.04 0.226,0.04c0.277,0 0.526,-0.174 0.62,-0.434l0.708,-1.937l0.859,-0.509l-0.404,2.111c-0.005,0.024 -0.008,0.048 -0.011,0.075l-0.685,3.303l-1.842,2.594c-0.239,0.336 -0.16,0.805 0.177,1.044c0.127,0.091 0.277,0.139 0.433,0.139c0.243,-0 0.472,-0.118 0.612,-0.316l1.933,-2.722c0.06,-0.085 0.101,-0.179 0.122,-0.282l0.412,-1.985l1.559,1.598l0.398,3.054c0.049,0.371 0.368,0.653 0.742,0.653c0.033,-0 0.066,-0.002 0.098,-0.007c0.41,-0.054 0.7,-0.429 0.646,-0.84l-0.431,-3.301c-0.021,-0.16 -0.095,-0.311 -0.207,-0.427l-1.865,-1.912l0.306,-1.62l0.062,-0.326l0.475,0.889c0.07,0.132 0.186,0.237 0.324,0.296l1.676,0.713c0.083,0.035 0.169,0.053 0.259,0.053c0.265,0 0.504,-0.158 0.608,-0.402c0.069,-0.162 0.072,-0.341 0.005,-0.506l-0.003,0.002Z" style="fill-rule:nonzero;"/></svg>